<svg id="Layer_1" data-name="Layer 1" xmlns="http://www.w3.org/2000/svg" viewBox="0 0 115.12 20.24"><defs><style>.cls-1{fill:#b3b3b3;}.cls-2{fill:#fff;}.cls-3{isolation:isolate;}</style></defs><title>ahn-seongmin-th</title><g id="Layer_1-2" data-name="Layer 1-2"><rect class="cls-1" x="13.81" y="2.94" width="101.31" height="14.37" rx="3.59"/><circle cx="10.12" cy="10.12" r="10.12"/><path class="cls-2" d="M14.78,9.5l-.91-.91V6.37a.62.62,0,0,0-.62-.62h-.63a.62.62,0,0,0-.62.62v.35L10.75,5.47a.88.88,0,0,0-.63-.35.86.86,0,0,0-.62.35l-4,4a.86.86,0,0,0-.35.62.62.62,0,0,0,.61.63H6.4V14.5a.64.64,0,0,0,.63.62H8.87V12a.63.63,0,0,1,.63-.63h1.25a.64.64,0,0,1,.62.63v3.12h1.88a.62.62,0,0,0,.62-.62V10.75h.63a.62.62,0,0,0,.62-.62h0A.85.85,0,0,0,14.78,9.5Z"/><g class="cls-3"><path d="M27.45,11.86a2.33,2.33,0,0,0,0,.32.91.91,0,0,0,.16.32.64.64,0,0,0,.55.21.91.91,0,0,0,.41-.09.67.67,0,0,0,.28-.24.61.61,0,0,0,.09-.31c0-.11,0-.18,0-.22v-.51A2.38,2.38,0,0,0,29,11a.41.41,0,0,0-.13-.24,1.27,1.27,0,0,0-.33-.23,8,8,0,0,0-.75-.3,2.17,2.17,0,0,1-.89-.63,1.67,1.67,0,0,1-.37-1.16V8.12A1.87,1.87,0,0,1,27,6.83a1.64,1.64,0,0,1,1.25-.54,1.66,1.66,0,0,1,1.27.53A1.82,1.82,0,0,1,30,8.12v.33H29V8.12a1.84,1.84,0,0,0,0-.26,1.22,1.22,0,0,0-.18-.32.59.59,0,0,0-.52-.21.68.68,0,0,0-.52.23.83.83,0,0,0-.2.56v.33a2.55,2.55,0,0,0,0,.31.58.58,0,0,0,.12.21.84.84,0,0,0,.29.21c.12.06.36.15.72.28a2.44,2.44,0,0,1,.94.63,1.66,1.66,0,0,1,.4,1.18v.59a2.41,2.41,0,0,1-.07.64,2.26,2.26,0,0,1-.44.77,1.88,1.88,0,0,1-2.67-.14,2.22,2.22,0,0,1-.42-1.27V11.6h1Z"/><path d="M34.08,12.66v1H31V6.34h3.13v1H32V9.49h1.84v1H32v2.18Z"/><path d="M35.29,7.05a1.91,1.91,0,0,1,.64-.56,1.66,1.66,0,0,1,.8-.2,1.8,1.8,0,0,1,.77.16,1.57,1.57,0,0,1,.59.45,1.67,1.67,0,0,1,.33.59,2.17,2.17,0,0,1,.09.65v3.74a2.37,2.37,0,0,1-.06.57,2,2,0,0,1-.26.56,1.71,1.71,0,0,1-.59.53,1.69,1.69,0,0,1-.83.22,1.75,1.75,0,0,1-1-.27,1.53,1.53,0,0,1-.61-.6,1.93,1.93,0,0,1-.2-.54,3.18,3.18,0,0,1,0-.47V8.14a2.08,2.08,0,0,1,.07-.59A1.53,1.53,0,0,1,35.29,7.05Zm2,.58a.69.69,0,0,0-.57-.3.72.72,0,0,0-.37.11.57.57,0,0,0-.25.23.82.82,0,0,0-.1.26,2,2,0,0,0,0,.22v3.74a2.32,2.32,0,0,0,0,.24.93.93,0,0,0,.17.36.63.63,0,0,0,.55.22.68.68,0,0,0,.35-.09.65.65,0,0,0,.24-.22,1.09,1.09,0,0,0,.09-.23,2,2,0,0,0,0-.28V8.15a1.2,1.2,0,0,0,0-.31A.43.43,0,0,0,37.33,7.63Z"/><path d="M42.26,13.7,40.62,9.22V13.7h-1V6.34h1l1.63,4.46V6.34h1.05V13.7Z"/><path d="M47.57,12.92a1.66,1.66,0,0,1-.64.62,1.81,1.81,0,0,1-.87.22,1.76,1.76,0,0,1-.8-.2,1.65,1.65,0,0,1-.6-.49,1.75,1.75,0,0,1-.29-.58,3.36,3.36,0,0,1-.07-.67V8.15a2.38,2.38,0,0,1,.06-.55,3.55,3.55,0,0,1,.4-.78,1.47,1.47,0,0,1,1.34-.53,1.81,1.81,0,0,1,.82.2A1.54,1.54,0,0,1,47.5,7a1.51,1.51,0,0,1,.26.55,2.62,2.62,0,0,1,.06.57v.3h-1v-.3a1.91,1.91,0,0,0,0-.28.82.82,0,0,0-.16-.31.62.62,0,0,0-.52-.2.59.59,0,0,0-.55.23,1.16,1.16,0,0,0-.16.33,1.06,1.06,0,0,0,0,.26v3.68a2.55,2.55,0,0,0,0,.31,1,1,0,0,0,.17.34.59.59,0,0,0,.54.23c.29,0,.47-.08.55-.23a1.74,1.74,0,0,0,.14-.34,2.28,2.28,0,0,0,0-.31V10.54h-.84V9.63h1.88v2.2a3.37,3.37,0,0,1,0,.66A1.5,1.5,0,0,1,47.57,12.92Z"/><path d="M52.53,13.7V9.26l-1,3.1H51l-1.05-3.1V13.7h-1V6.34h1l1.39,3.92,1.37-3.92h1V13.7Z"/><path d="M54.72,13.7V6.34h1V13.7Z"/><path d="M59.59,13.7,58,9.22V13.7h-1V6.34h1l1.63,4.46V6.34h1V13.7Z"/><path d="M64.49,13.7V7.32H63.25v-1h3.54v1H65.53V13.7Z"/><path d="M67.52,13.7V6.34h1V9.49h1.32V6.34h1V13.7h-1V10.41H68.57V13.7Z"/><path d="M71.52,13.7l1.53-7.36h1l1.64,7.36H74.58l-.29-1.58H72.93l-.3,1.58Zm1.58-2.56h1L73.6,8.52Z"/><path d="M76.25,13.7V6.34h1V13.7Z"/><path d="M81.57,13.7H78.45V6.34h1v6.32h2.08Z"/><path d="M81.8,13.7l1.53-7.36h1L86,13.7H84.87l-.3-1.58H83.21l-.29,1.58Zm1.59-2.56h1l-.5-2.62Z"/><path d="M89.21,13.7,87.58,9.22V13.7h-1V6.34h1l1.63,4.46V6.34h1V13.7Z"/><path d="M93,6.34a1.68,1.68,0,0,1,1.21.5,1.62,1.62,0,0,1,.52,1.21v3.83a1.85,1.85,0,0,1-.49,1.31A1.69,1.69,0,0,1,93,13.7H91.34V6.34Zm.68,5.54V8.05a.64.64,0,0,0-.22-.51.76.76,0,0,0-.54-.21h-.54v5.39h.51C93.42,12.72,93.68,12.44,93.68,11.88Z"/></g></g></svg>