<svg id="Layer_1" data-name="Layer 1" xmlns="http://www.w3.org/2000/svg" viewBox="0 0 115.12 20.24"><defs><style>.cls-1{fill:#b3b3b3;}.cls-2{fill:#fff;}.cls-3{isolation:isolate;}</style></defs><title>allen-ma-th</title><g id="Layer_1-2" data-name="Layer 1-2"><rect class="cls-1" x="13.81" y="2.94" width="101.31" height="14.37" rx="3.59"/><circle cx="10.12" cy="10.12" r="10.12"/><path class="cls-2" d="M14.78,9.5l-.91-.91V6.37a.62.62,0,0,0-.62-.62h-.63a.62.62,0,0,0-.62.62v.35L10.75,5.47a.88.88,0,0,0-.63-.35.86.86,0,0,0-.62.35l-4,4a.86.86,0,0,0-.35.62.62.62,0,0,0,.61.63H6.4V14.5a.64.64,0,0,0,.63.62H8.87V12a.63.63,0,0,1,.63-.63h1.25a.64.64,0,0,1,.62.63v3.12h1.88a.62.62,0,0,0,.62-.62V10.75h.63a.62.62,0,0,0,.62-.62h0A.85.85,0,0,0,14.78,9.5Z"/><g class="cls-3"><path d="M26.13,13.7l1.54-7.36h1l1.64,7.36H29.2l-.3-1.58H27.54l-.29,1.58Zm1.59-2.56h1l-.5-2.62Z"/><path d="M34,13.7H30.87V6.34h1.05v6.32H34Z"/><path d="M37.92,13.7H34.8V6.34h1v6.32h2.08Z"/><path d="M41.85,12.66v1H38.71V6.34h3.14v1H39.76V9.49H41.6v1H39.76v2.18Z"/><path d="M45.5,13.7,43.86,9.22V13.7h-1V6.34h1l1.63,4.46V6.34h1V13.7Z"/><path d="M50.4,13.7V7.32H49.16v-1H52.7v1H51.44V13.7Z"/><path d="M53.43,13.7V6.34h1V9.49H55.8V6.34h1V13.7h-1V10.41H54.48V13.7Z"/><path d="M57.43,13.7,59,6.34h1l1.64,7.36H60.49l-.3-1.58H58.84l-.3,1.58ZM59,11.14h1l-.5-2.62Z"/><path d="M62.16,13.7V6.34h1V13.7Z"/><path d="M67.48,13.7H64.36V6.34h1v6.32h2.08Z"/><path d="M67.71,13.7l1.53-7.36h1L71.9,13.7H70.77l-.29-1.58H69.12l-.29,1.58Zm1.58-2.56h1l-.49-2.62Z"/><path d="M75.12,13.7,73.49,9.22V13.7h-1V6.34h1l1.63,4.46V6.34h1V13.7Z"/><path d="M78.91,6.34a1.68,1.68,0,0,1,1.21.5,1.65,1.65,0,0,1,.51,1.21v3.83a1.84,1.84,0,0,1-.48,1.31,1.69,1.69,0,0,1-1.27.51H77.25V6.34Zm.68,5.54V8.05a.64.64,0,0,0-.22-.51.76.76,0,0,0-.54-.21h-.54v5.39h.51C79.33,12.72,79.59,12.44,79.59,11.88Z"/></g></g></svg>