<svg xmlns="http://www.w3.org/2000/svg" viewBox="0 0 196.46 17.5"><defs><style>.cls-1{fill:#fff;}</style></defs><title>copyright</title><g id="copyright" data-name="copyright"><g id="copyright" data-name="copyright"><g id="copyright"><g id="_2020_CRAVITY_FANSITE" data-name="2020 CRAVITY FANSITE"><g id="_9c0" data-name="9c0"><path class="cls-1" d="M12.27,11.5a4,4,0,0,1-1.22.88,4,4,0,0,1-1.8.37,4.4,4.4,0,0,1-1.65-.3,3.55,3.55,0,0,1-1.27-.83,3.81,3.81,0,0,1-.82-1.27,4.2,4.2,0,0,1-.3-1.61,4,4,0,0,1,.31-1.55,3.8,3.8,0,0,1,.84-1.27,3.91,3.91,0,0,1,1.27-.86,4.33,4.33,0,0,1,1.62-.31A4.2,4.2,0,0,1,11,5.09,3.88,3.88,0,0,1,12.29,6L10.9,7.48A2.7,2.7,0,0,0,10.27,7a1.83,1.83,0,0,0-1-.22,1.61,1.61,0,0,0-.74.16A1.89,1.89,0,0,0,8,7.35,1.93,1.93,0,0,0,7.65,8a2.42,2.42,0,0,0-.12.76,2.28,2.28,0,0,0,.12.73,2.09,2.09,0,0,0,.35.64,1.91,1.91,0,0,0,.56.45,1.5,1.5,0,0,0,.74.18,2,2,0,0,0,1-.23,2.66,2.66,0,0,0,.64-.51Z"/><path class="cls-1" d="M8.75,17.5A8.75,8.75,0,1,1,17.5,8.75,8.77,8.77,0,0,1,8.75,17.5Zm0-15.6A6.85,6.85,0,1,0,15.6,8.75,6.85,6.85,0,0,0,8.75,1.9Z"/></g><path class="cls-1" d="M29.3,13v1H24.54V10.14a1.45,1.45,0,0,1,.25-.72,1.51,1.51,0,0,1,.79-.62,2.17,2.17,0,0,1,.47-.17l.61-.22.58-.2.17-.05.14-.06A.7.7,0,0,0,28,7.75a1,1,0,0,0,.1-.41V5.65a1.39,1.39,0,0,0,0-.27.76.76,0,0,0-.16-.29.85.85,0,0,0-.35-.23A1.73,1.73,0,0,0,27,4.77a1.93,1.93,0,0,0-.64.09,1.06,1.06,0,0,0-.38.22.65.65,0,0,0-.17.27.93.93,0,0,0,0,.27v.16H24.54V5.43A2.32,2.32,0,0,1,24.6,5a1.29,1.29,0,0,1,.29-.57,2,2,0,0,1,.72-.48,3.5,3.5,0,0,1,1.31-.2,3.37,3.37,0,0,1,1.32.21,2,2,0,0,1,.71.49,1.26,1.26,0,0,1,.3.57,3.09,3.09,0,0,1,.05.44V7.67a1.69,1.69,0,0,1-.37.9,2.07,2.07,0,0,1-1.08.62l-.09,0-.52.18-.51.17-.24.08-.2.09a.65.65,0,0,0-.46.33,1.15,1.15,0,0,0-.11.4V13H29.3Z"/><path class="cls-1" d="M36.13,12.24v.14a2.92,2.92,0,0,1-.05.45,1.23,1.23,0,0,1-.3.56,1.77,1.77,0,0,1-.71.48,3.37,3.37,0,0,1-1.32.21,3.31,3.31,0,0,1-1.31-.21,1.81,1.81,0,0,1-.72-.48,1.29,1.29,0,0,1-.29-.57,2.24,2.24,0,0,1-.06-.44v-7A2.34,2.34,0,0,1,31.43,5a1.4,1.4,0,0,1,.29-.57,1.81,1.81,0,0,1,.72-.48,3.31,3.31,0,0,1,1.31-.21,3.37,3.37,0,0,1,1.32.21,1.77,1.77,0,0,1,.71.48,1.32,1.32,0,0,1,.3.57,3.25,3.25,0,0,1,.05.44v6.84ZM34.94,12h0V5.76h0V5.61a.84.84,0,0,0,0-.27.64.64,0,0,0-.17-.28,1,1,0,0,0-.37-.21,1.67,1.67,0,0,0-.65-.1,1.53,1.53,0,0,0-.61.1.82.82,0,0,0-.35.23.7.7,0,0,0-.17.28,1.41,1.41,0,0,0,0,.28v6.52a1.31,1.31,0,0,0,0,.27.64.64,0,0,0,.17.28.93.93,0,0,0,.35.23,1.75,1.75,0,0,0,.61.09,1.91,1.91,0,0,0,.65-.09,1,1,0,0,0,.37-.22.56.56,0,0,0,.17-.27.92.92,0,0,0,0-.26Z"/><path class="cls-1" d="M43,13v1H38.21V10.14a1.36,1.36,0,0,1,.25-.72,1.45,1.45,0,0,1,.78-.62,2.08,2.08,0,0,1,.48-.17l.61-.22.58-.2.17-.05.14-.06a.72.72,0,0,0,.46-.35,1.11,1.11,0,0,0,.1-.41V5.65a1.47,1.47,0,0,0,0-.27.62.62,0,0,0-.15-.29.93.93,0,0,0-.35-.23,2.25,2.25,0,0,0-1.26,0,1,1,0,0,0-.38.22.59.59,0,0,0-.18.27,1.47,1.47,0,0,0,0,.27v.16H38.21V5.43a2.19,2.19,0,0,1,0-.46,1.32,1.32,0,0,1,.3-.57,1.91,1.91,0,0,1,.71-.48,3.59,3.59,0,0,1,1.32-.2,3.31,3.31,0,0,1,1.31.21,1.93,1.93,0,0,1,.72.49,1.35,1.35,0,0,1,.29.57,2.24,2.24,0,0,1,.06.44V7.67a1.7,1.7,0,0,1-.38.9,2.07,2.07,0,0,1-1.08.62l-.08,0-.53.18-.51.17-.23.08-.2.09a.67.67,0,0,0-.47.33,1.42,1.42,0,0,0-.11.4V13H43Z"/><path class="cls-1" d="M49.8,12.24v.14a2.15,2.15,0,0,1-.06.45,1.21,1.21,0,0,1-.29.56,1.81,1.81,0,0,1-.72.48,3.28,3.28,0,0,1-1.31.21,3.37,3.37,0,0,1-1.32-.21,1.77,1.77,0,0,1-.71-.48,1.22,1.22,0,0,1-.3-.57,3.09,3.09,0,0,1-.05-.44v-7A3.25,3.25,0,0,1,45.09,5a1.32,1.32,0,0,1,.3-.57,1.77,1.77,0,0,1,.71-.48,3.37,3.37,0,0,1,1.32-.21,3.28,3.28,0,0,1,1.31.21,1.81,1.81,0,0,1,.72.48,1.29,1.29,0,0,1,.29.57,2.34,2.34,0,0,1,.06.44v6.84ZM48.61,12h0V5.76h0V5.61a1.26,1.26,0,0,0,0-.27.75.75,0,0,0-.17-.28A1.16,1.16,0,0,0,48,4.85a1.71,1.71,0,0,0-.65-.1,1.46,1.46,0,0,0-.61.1.8.8,0,0,0-.36.23.67.67,0,0,0-.16.28,1,1,0,0,0,0,.28v6.52a.88.88,0,0,0,0,.27.62.62,0,0,0,.16.28.9.9,0,0,0,.36.23,1.67,1.67,0,0,0,.61.09,2,2,0,0,0,.65-.09,1.17,1.17,0,0,0,.37-.22.65.65,0,0,0,.17-.27,1.51,1.51,0,0,0,0-.26Z"/><path class="cls-1" d="M59,5.76V5.61a.84.84,0,0,0,0-.27.75.75,0,0,0-.17-.28,1.22,1.22,0,0,0-.38-.21,1.59,1.59,0,0,0-.64-.1,1.53,1.53,0,0,0-.61.1.82.82,0,0,0-.35.23.7.7,0,0,0-.17.28,1.41,1.41,0,0,0,0,.28v6.52a1.31,1.31,0,0,0,0,.27.64.64,0,0,0,.17.28.93.93,0,0,0,.35.23,1.75,1.75,0,0,0,.61.09,1.81,1.81,0,0,0,.64-.09,1.23,1.23,0,0,0,.38-.22.65.65,0,0,0,.17-.27.92.92,0,0,0,0-.26V12h1.19v.35a2.92,2.92,0,0,1,0,.45,1.23,1.23,0,0,1-.3.56,1.77,1.77,0,0,1-.71.48,3.37,3.37,0,0,1-1.32.21,3.28,3.28,0,0,1-1.31-.21,1.81,1.81,0,0,1-.72-.48,1.06,1.06,0,0,1-.3-.57,2.24,2.24,0,0,1-.06-.44v-7A2.34,2.34,0,0,1,55.43,5a1.13,1.13,0,0,1,.3-.57,1.81,1.81,0,0,1,.72-.48,3.28,3.28,0,0,1,1.31-.21,3.37,3.37,0,0,1,1.32.21,1.77,1.77,0,0,1,.71.48,1.32,1.32,0,0,1,.3.57,3.25,3.25,0,0,1,0,.44v.36Z"/><path class="cls-1" d="M65.9,14,64.39,9.64l-.28.1-.23.08-.21.07-.32.14a.76.76,0,0,0-.23.21.61.61,0,0,0-.11.32V14H61.82V5.41A2.34,2.34,0,0,1,61.88,5a1.29,1.29,0,0,1,.29-.57,2,2,0,0,1,.72-.48,3.5,3.5,0,0,1,1.31-.2,3.59,3.59,0,0,1,1.32.2,2,2,0,0,1,.71.48,1.32,1.32,0,0,1,.3.57,3.25,3.25,0,0,1,0,.44V7.75a1.63,1.63,0,0,1-.24.85,1.7,1.7,0,0,1-.83.65L67.16,14ZM63.33,8.83l.4-.14.42-.15.38-.13.16-.06.16,0A.76.76,0,0,0,65.3,8a1,1,0,0,0,.11-.4V5.62a1,1,0,0,0,0-.27.5.5,0,0,0-.17-.27,1,1,0,0,0-.37-.22,1.85,1.85,0,0,0-.64-.09,1.67,1.67,0,0,0-.61.09.9.9,0,0,0-.36.23.56.56,0,0,0-.16.29.93.93,0,0,0,0,.27V8.94Z"/><path class="cls-1" d="M73.46,14H72.27V9.29L72,9.4l-.6.21-.84.28a1.3,1.3,0,0,0-.32.14,1.19,1.19,0,0,0-.23.22.53.53,0,0,0-.11.34V14H68.7V5.41a3.25,3.25,0,0,1,0-.44,1.32,1.32,0,0,1,.3-.57,2,2,0,0,1,.71-.48,3.59,3.59,0,0,1,1.32-.2,3.5,3.5,0,0,1,1.31.2,2,2,0,0,1,.72.48A1.29,1.29,0,0,1,73.4,5a2.34,2.34,0,0,1,.06.44ZM70.29,8.79l.6-.21.54-.19.28-.09A.76.76,0,0,0,72.17,8a1.16,1.16,0,0,0,.1-.41V5.62a1,1,0,0,0,0-.27.5.5,0,0,0-.17-.27,1,1,0,0,0-.37-.22A1.88,1.88,0,0,0,71,4.77a1.65,1.65,0,0,0-.6.09.9.9,0,0,0-.36.23.65.65,0,0,0-.16.29.93.93,0,0,0,0,.27V8.94Z"/><path class="cls-1" d="M80.29,12.59v.47a1.72,1.72,0,0,1,0,.34.79.79,0,0,1-.1.27.87.87,0,0,1-.19.25,1.31,1.31,0,0,1-.65.34,1.29,1.29,0,0,1-.73,0L77.83,14l-.78-.27-.27-.09-.2-.08a3.19,3.19,0,0,1-.35-.14,1.14,1.14,0,0,1-.6-.66,1.88,1.88,0,0,1-.1-.68V3.83H76.7v7.8a.14.14,0,0,1,0,.07,1,1,0,0,0,.11.47,1.07,1.07,0,0,0,.29.31,1.66,1.66,0,0,0,.4.2l.39.14a5.81,5.81,0,0,0,.66.18.65.65,0,0,0,.35,0,.28.28,0,0,0,.15-.21,1.87,1.87,0,0,0,0-.38V11.18h0V3.83h1.18v8.76Z"/><path class="cls-1" d="M83.72,3.84V5.26H82.54V3.84ZM82.54,6.67h1.18V14H82.54Z"/><path class="cls-1" d="M90.27,4.82H88.48V14H87.3V4.82H85.51v-1h4.76Z"/><path class="cls-1" d="M96.71,10.82V12.4a2.32,2.32,0,0,1-.06.45,1.21,1.21,0,0,1-.29.56,2.1,2.1,0,0,1-.71.48,4.46,4.46,0,0,1-2.64,0,2.1,2.1,0,0,1-.71-.48,1.19,1.19,0,0,1-.29-.57A2.34,2.34,0,0,1,92,12.4V12h1.18v.16a1.41,1.41,0,0,0,0,.28.62.62,0,0,0,.16.28,1,1,0,0,0,.36.22,1.71,1.71,0,0,0,.61.09,1.85,1.85,0,0,0,.64-.09,1,1,0,0,0,.37-.22.59.59,0,0,0,.18-.27.87.87,0,0,0,0-.26V10.68a.94.94,0,0,0-.1-.4A.68.68,0,0,0,95,9.92l-.21-.07-.22-.08-1-.35-.09,0a2.08,2.08,0,0,1-1.12-.69A1.62,1.62,0,0,1,92,7.75V3.83h1.18V7.58a1.08,1.08,0,0,0,.12.39.81.81,0,0,0,.45.33l.14,0,.18.06.57.21.61.21.17.05.15,0V3.83h1.19v6.64h0Z"/><path class="cls-1" d="M106.76,4.82H105V14h-1.18V4.82H102v-1h4.76Z"/><path class="cls-1" d="M113.48,3.83V14h-1.17V9.46h-2.68V14h-1.19V3.83h1.19V8.35h2.68V3.83Z"/><path class="cls-1" d="M120.31,14h-1.19V9.29l-.3.11-.59.21-.84.28a1.3,1.3,0,0,0-.32.14,1.23,1.23,0,0,0-.24.22.53.53,0,0,0-.1.34V14h-1.18V5.41a2.34,2.34,0,0,1,.06-.44,1.4,1.4,0,0,1,.29-.57,2,2,0,0,1,.72-.48,3.53,3.53,0,0,1,1.31-.2,3.59,3.59,0,0,1,1.32.2,2,2,0,0,1,.71.48,1.32,1.32,0,0,1,.3.57,2.16,2.16,0,0,1,0,.44Zm-3.16-5.19.59-.21.55-.19.27-.09A.75.75,0,0,0,119,8a1.13,1.13,0,0,0,.09-.41V5.62a.93.93,0,0,0,0-.27.56.56,0,0,0-.17-.27,1.1,1.1,0,0,0-.37-.22,1.91,1.91,0,0,0-.65-.09,1.75,1.75,0,0,0-.61.09.93.93,0,0,0-.35.23.67.67,0,0,0-.17.29,1.39,1.39,0,0,0,0,.27V8.94Z"/><path class="cls-1" d="M123.73,3.84V5.26h-1.18V3.84Zm-1.18,2.83h1.18V14h-1.18Z"/><path class="cls-1" d="M130,13v1h-2.57a1.54,1.54,0,0,1-.7-.15,1.41,1.41,0,0,1-.49-.38,1.61,1.61,0,0,1-.29-.51,1.47,1.47,0,0,1-.1-.54V3.83H127v8.34a.81.81,0,0,0,.22.58.73.73,0,0,0,.58.24H130Z"/><path class="cls-1" d="M136.78,14h-1.19V9.29l-.3.11-.6.21-.84.28a1.3,1.3,0,0,0-.32.14,1.19,1.19,0,0,0-.23.22.53.53,0,0,0-.11.34V14H132V5.41a3.25,3.25,0,0,1,0-.44,1.32,1.32,0,0,1,.3-.57,2,2,0,0,1,.71-.48,3.59,3.59,0,0,1,1.32-.2,3.5,3.5,0,0,1,1.31.2,2,2,0,0,1,.72.48,1.29,1.29,0,0,1,.29.57,2.34,2.34,0,0,1,.06.44Zm-3.17-5.19.6-.21.54-.19L135,8.3a.76.76,0,0,0,.46-.35,1.16,1.16,0,0,0,.1-.41V5.62a1.47,1.47,0,0,0,0-.27.59.59,0,0,0-.18-.27,1,1,0,0,0-.37-.22,1.85,1.85,0,0,0-.64-.09,1.67,1.67,0,0,0-.61.09.9.9,0,0,0-.36.23.65.65,0,0,0-.16.29,1.47,1.47,0,0,0,0,.27V8.94Z"/><path class="cls-1" d="M143.61,14h-1.19V5.62a.93.93,0,0,0,0-.27.65.65,0,0,0-.17-.27.93.93,0,0,0-.37-.22,1.91,1.91,0,0,0-.65-.09,1.71,1.71,0,0,0-.61.09,1,1,0,0,0-.36.23.65.65,0,0,0-.16.29,1.39,1.39,0,0,0,0,.27V14h-1.18V5.41a2.34,2.34,0,0,1,.06-.44,1.19,1.19,0,0,1,.29-.57,2.1,2.1,0,0,1,.71-.48,4.46,4.46,0,0,1,2.64,0,2.1,2.1,0,0,1,.71.48,1.19,1.19,0,0,1,.29.57,2.34,2.34,0,0,1,.06.44V14Z"/><path class="cls-1" d="M150.44,12v.37a1.47,1.47,0,0,1-.1.54,1.44,1.44,0,0,1-.29.51,1.32,1.32,0,0,1-.49.38,1.54,1.54,0,0,1-.7.15h-3.18V3.83h3.18a1.54,1.54,0,0,1,.7.15,1.32,1.32,0,0,1,.49.38,1.44,1.44,0,0,1,.29.51,1.51,1.51,0,0,1,.1.54V12Zm-1.17-6.25V5.65a.88.88,0,0,0-.22-.59.73.73,0,0,0-.58-.25h-1.6V13h1.6a.75.75,0,0,0,.58-.24.9.9,0,0,0,.22-.59V5.78Z"/><path class="cls-1" d="M157.19,8.35h2.57V9.46h-2.57V14H156V5.41a1.77,1.77,0,0,1,.1-.54,1.46,1.46,0,0,1,.3-.51A1.32,1.32,0,0,1,156.9,4a1.52,1.52,0,0,1,.69-.15h2.79v1H158a.7.7,0,0,0-.58.25.83.83,0,0,0-.22.59v2.7Z"/><path class="cls-1" d="M166.82,14h-1.19V9.29l-.3.11-.6.21-.84.28a1.48,1.48,0,0,0-.32.14,1.19,1.19,0,0,0-.23.22.53.53,0,0,0-.1.34V14h-1.18V5.41a2.34,2.34,0,0,1,.06-.44,1.19,1.19,0,0,1,.29-.57,2.1,2.1,0,0,1,.71-.48,4.46,4.46,0,0,1,2.64,0,2.1,2.1,0,0,1,.71.48,1.19,1.19,0,0,1,.29.57,2.34,2.34,0,0,1,.06.44Zm-3.16-5.19.59-.21.55-.19.27-.09a.73.73,0,0,0,.46-.35,1,1,0,0,0,.1-.41V5.62a.93.93,0,0,0,0-.27.59.59,0,0,0-.18-.27,1,1,0,0,0-.37-.22,1.85,1.85,0,0,0-.64-.09,1.71,1.71,0,0,0-.61.09,1.06,1.06,0,0,0-.36.23.76.76,0,0,0-.16.29,1.39,1.39,0,0,0,0,.27V8.94Z"/><path class="cls-1" d="M173.65,14h-1.19V5.62a.93.93,0,0,0,0-.27.56.56,0,0,0-.17-.27.86.86,0,0,0-.37-.22,1.91,1.91,0,0,0-.65-.09,1.75,1.75,0,0,0-.61.09,1.06,1.06,0,0,0-.36.23.76.76,0,0,0-.16.29,1.39,1.39,0,0,0,0,.27V14h-1.18V5.41A2.34,2.34,0,0,1,169,5a1.29,1.29,0,0,1,.29-.57,2,2,0,0,1,.72-.48,3.5,3.5,0,0,1,1.31-.2,3.59,3.59,0,0,1,1.32.2,2,2,0,0,1,.71.48,1.32,1.32,0,0,1,.3.57,3.25,3.25,0,0,1,.05.44V14Z"/><path class="cls-1" d="M180.48,12.38a2,2,0,0,1,0,.45,1.31,1.31,0,0,1-.29.56,1.81,1.81,0,0,1-.72.48,3.37,3.37,0,0,1-1.32.21,3.31,3.31,0,0,1-1.31-.21,1.81,1.81,0,0,1-.72-.48,1.29,1.29,0,0,1-.29-.57,2.24,2.24,0,0,1-.06-.44V12h1.18v.13a.88.88,0,0,0,0,.27.54.54,0,0,0,.16.28.93.93,0,0,0,.35.23,1.75,1.75,0,0,0,.61.09,1.91,1.91,0,0,0,.65-.09,1.17,1.17,0,0,0,.37-.22.56.56,0,0,0,.17-.27.92.92,0,0,0,0-.26V10.66a1.17,1.17,0,0,0-.09-.4.72.72,0,0,0-.47-.35,1.27,1.27,0,0,0-.21-.07l-.22-.09-1.05-.35-.08,0a2,2,0,0,1-1.12-.68,1.59,1.59,0,0,1-.33-.95V5.4a2.34,2.34,0,0,1,.06-.44,1.4,1.4,0,0,1,.29-.57,1.81,1.81,0,0,1,.72-.48,3.31,3.31,0,0,1,1.31-.21,3.37,3.37,0,0,1,1.32.21,1.81,1.81,0,0,1,.72.48,1.4,1.4,0,0,1,.29.57,2.16,2.16,0,0,1,0,.44v.36h-1.19V5.61a.84.84,0,0,0,0-.27.64.64,0,0,0-.17-.28,1.16,1.16,0,0,0-.37-.21,1.67,1.67,0,0,0-.65-.1,1.53,1.53,0,0,0-.61.1.82.82,0,0,0-.35.23.58.58,0,0,0-.16.28,1,1,0,0,0,0,.28V7.53a1,1,0,0,0,.11.4.72.72,0,0,0,.46.35l.14.06.17.05.58.2.61.22a2.92,2.92,0,0,1,.48.17,1.36,1.36,0,0,1,.44.25,1.46,1.46,0,0,1,.33.37,1.48,1.48,0,0,1,.26.87v1.91Z"/><path class="cls-1" d="M183.9,3.84V5.26h-1.18V3.84Zm-1.18,2.83h1.18V14h-1.18Z"/><path class="cls-1" d="M190.45,4.82h-1.79V14h-1.18V4.82h-1.79v-1h4.76Z"/><path class="cls-1" d="M196.46,14h-2.75a1.54,1.54,0,0,1-.7-.15,1.41,1.41,0,0,1-.49-.38,1.61,1.61,0,0,1-.29-.51,1.47,1.47,0,0,1-.1-.54v-7a1.51,1.51,0,0,1,.1-.54,1.61,1.61,0,0,1,.29-.51A1.41,1.41,0,0,1,193,4a1.54,1.54,0,0,1,.7-.15h2.75v1h-2.35a.7.7,0,0,0-.58.25.83.83,0,0,0-.22.59v2.7h2.53V9.46h-2.53v2.71a.85.85,0,0,0,.22.59.73.73,0,0,0,.58.24h2.35Z"/></g></g></g></g></svg>