<svg id="Layer_1" data-name="Layer 1" xmlns="http://www.w3.org/2000/svg" viewBox="0 0 115.12 20.24"><defs><style>.cls-1{fill:#b3b3b3;}.cls-2{fill:#fff;}.cls-3{isolation:isolate;}</style></defs><title>ham-wonjin-th</title><g id="Layer_1-2" data-name="Layer 1-2"><rect class="cls-1" x="13.81" y="2.94" width="101.31" height="14.37" rx="3.59"/><circle cx="10.12" cy="10.12" r="10.12"/><path class="cls-2" d="M14.78,9.5l-.91-.91V6.37a.62.62,0,0,0-.62-.62h-.63a.62.62,0,0,0-.62.62v.35L10.75,5.47a.88.88,0,0,0-.63-.35.86.86,0,0,0-.62.35l-4,4a.86.86,0,0,0-.35.62.62.62,0,0,0,.61.63H6.4V14.5a.64.64,0,0,0,.63.62H8.87V12a.63.63,0,0,1,.63-.63h1.25a.64.64,0,0,1,.62.63v3.12h1.88a.62.62,0,0,0,.62-.62V10.75h.63a.62.62,0,0,0,.62-.62h0A.85.85,0,0,0,14.78,9.5Z"/><g class="cls-3"><path d="M26.69,13.7V6.34h1V9.49h1.32V6.34h1V13.7h-1V10.41H27.74V13.7Z"/><path d="M30.69,13.7l1.53-7.36h1l1.64,7.36H33.75l-.3-1.58H32.1l-.3,1.58Zm1.58-2.56h1l-.5-2.62Z"/><path d="M39.08,13.7V9.26l-1,3.1H37.5l-1-3.1V13.7H35.41V6.34h1l1.4,3.92,1.36-3.92h1V13.7Z"/><path d="M46.44,13.7l-.86-4.44-.85,4.44h-1L42.7,6.34h1.12l.52,4.47.84-4.47H46l.86,4.47.53-4.47h1.11l-1,7.36Z"/><path d="M49.34,7.05A1.82,1.82,0,0,1,50,6.49a1.64,1.64,0,0,1,.8-.2,1.83,1.83,0,0,1,.77.16,1.75,1.75,0,0,1,.59.45,1.5,1.5,0,0,1,.32.59,2.17,2.17,0,0,1,.09.65v3.74a2.37,2.37,0,0,1-.06.57,1.72,1.72,0,0,1-.26.56,1.67,1.67,0,0,1-.58.53,1.72,1.72,0,0,1-.84.22,1.78,1.78,0,0,1-1-.27,1.44,1.44,0,0,1-.6-.6,2,2,0,0,1-.21-.54,3.18,3.18,0,0,1,0-.47V8.14a2.51,2.51,0,0,1,.07-.59A1.56,1.56,0,0,1,49.34,7.05Zm2,.58a.69.69,0,0,0-.58-.3.72.72,0,0,0-.36.11.6.6,0,0,0-.26.23.62.62,0,0,0-.09.26.9.9,0,0,0,0,.22v3.74a2.09,2.09,0,0,0,0,.24.85.85,0,0,0,.18.36.62.62,0,0,0,.54.22.69.69,0,0,0,.36-.09.61.61,0,0,0,.23-.22.77.77,0,0,0,.1-.23,2,2,0,0,0,0-.28V8.15a2,2,0,0,0,0-.31A.53.53,0,0,0,51.38,7.63Z"/><path d="M56.3,13.7,54.67,9.22V13.7H53.62V6.34h1l1.63,4.46V6.34h1V13.7Z"/><path d="M60.67,13a1.88,1.88,0,0,1-.63.59,1.64,1.64,0,0,1-.81.22,1.78,1.78,0,0,1-.78-.18,2.26,2.26,0,0,1-.65-.51l.81-.64a.84.84,0,0,0,.59.26q.46,0,.57-.24a1.41,1.41,0,0,0,.13-.34,1.77,1.77,0,0,0,0-.24V6.34H61v5.43a3,3,0,0,1-.06.73A1.92,1.92,0,0,1,60.67,13Z"/><path d="M62,13.7V6.34h1V13.7Z"/><path d="M66.9,13.7,65.26,9.22V13.7H64.21V6.34h1l1.63,4.46V6.34h1V13.7Z"/><path d="M71.79,13.7V7.32H70.56v-1h3.53v1H72.84V13.7Z"/><path d="M74.83,13.7V6.34h1V9.49h1.32V6.34h1V13.7h-1V10.41H75.87V13.7Z"/><path d="M78.82,13.7l1.53-7.36h1L83,13.7H81.88l-.29-1.58H80.23l-.29,1.58Zm1.58-2.56h1L80.9,8.52Z"/><path d="M83.55,13.7V6.34h1V13.7Z"/><path d="M88.87,13.7H85.75V6.34h1v6.32h2.08Z"/><path d="M89.11,13.7l1.53-7.36h1L93.3,13.7H92.17l-.3-1.58H90.52l-.3,1.58Zm1.58-2.56h1l-.5-2.62Z"/><path d="M96.52,13.7,94.88,9.22V13.7h-1V6.34h1l1.62,4.46V6.34h1V13.7Z"/><path d="M100.3,6.34a1.7,1.7,0,0,1,1.22.5A1.65,1.65,0,0,1,102,8.05v3.83a1.8,1.8,0,0,1-.49,1.31,1.69,1.69,0,0,1-1.27.51H98.64V6.34Zm.68,5.54V8.05a.64.64,0,0,0-.22-.51.72.72,0,0,0-.53-.21h-.54v5.39h.51Q101,12.72,101,11.88Z"/></g></g></svg>