<svg id="Layer_1" data-name="Layer 1" xmlns="http://www.w3.org/2000/svg" viewBox="0 0 115.12 20.24"><defs><style>.cls-1{fill:#b3b3b3;}.cls-2{fill:#fff;}.cls-3{isolation:isolate;}</style></defs><title>ig-minhee</title><g id="Layer_1-2" data-name="Layer 1-2"><rect class="cls-1" x="13.81" y="2.94" width="101.31" height="14.37" rx="3.59"/><circle cx="10.12" cy="10.12" r="10.12"/><path class="cls-2" d="M13.29,7.51a.6.6,0,1,0-.6.6.6.6,0,0,0,.6-.6"/><path class="cls-2" d="M14.09,12.2a2.63,2.63,0,0,1-.17.92,1.6,1.6,0,0,1-.95,1,3,3,0,0,1-.93.18H8a2.89,2.89,0,0,1-.92-.18,1.6,1.6,0,0,1-.58-.37,1.48,1.48,0,0,1-.37-.58,2.68,2.68,0,0,1-.17-1v-4a2.69,2.69,0,0,1,.17-.93,1.56,1.56,0,0,1,.37-.57,1.6,1.6,0,0,1,.58-.37A3,3,0,0,1,8,6.1h4a3,3,0,0,1,.93.18,1.6,1.6,0,0,1,.58.37,1.65,1.65,0,0,1,.37.57,2.69,2.69,0,0,1,.17.93v4ZM15,8.11a3.37,3.37,0,0,0-.23-1.21A2.47,2.47,0,0,0,13.3,5.44a3.37,3.37,0,0,0-1.21-.23H8a3.37,3.37,0,0,0-1.21.23A2.45,2.45,0,0,0,5.29,6.9a3.62,3.62,0,0,0-.24,1.21v4.13a3.62,3.62,0,0,0,.24,1.21,2.45,2.45,0,0,0,1.46,1.46A3.55,3.55,0,0,0,8,15.14h4.13a3.37,3.37,0,0,0,1.21-.23,2.45,2.45,0,0,0,1.46-1.46,3.34,3.34,0,0,0,.2-1.21V8.11Z"/><path class="cls-2" d="M10,11.84a1.67,1.67,0,1,1,1.67-1.67h0A1.66,1.66,0,0,1,10,11.84Zm0-4.23a2.57,2.57,0,1,0,2.57,2.57h0A2.57,2.57,0,0,0,10,7.61Z"/><g class="cls-3"><path d="M30.35,13.7V9.26l-1,3.1h-.53l-1-3.1V13.7h-1V6.34h1l1.4,3.92,1.36-3.92h1V13.7Z"/><path d="M32.54,13.7V6.34h1.05V13.7Z"/><path d="M37.42,13.7,35.78,9.22V13.7H34.73V6.34h1l1.63,4.46V6.34h1V13.7Z"/><path d="M44.58,15.13H38.86v-.71h5.72Z"/><path d="M45,13.7V6.34h1V9.49H47.4V6.34h1.05V13.7H47.4V10.41H46.08V13.7Z"/><path d="M49.55,13.7v-1H50.6v1Z"/><path d="M54.83,12.66v1H51.69V6.34h3.14v1H52.74V9.49h1.84v1H52.74v2.18Z"/><path d="M55.75,13.7v-1h1v1Z"/><path d="M61,12.66v1H57.9V6.34H61v1H58.94V9.49h1.84v1H58.94v2.18Z"/></g></g></svg>