<?xml version="1.0" encoding="utf-8"?>
<!-- Generator: Adobe Illustrator 23.0.3, SVG Export Plug-In . SVG Version: 6.00 Build 0)  -->
<svg version="1.1" id="Layer_1" xmlns="http://www.w3.org/2000/svg" xmlns:xlink="http://www.w3.org/1999/xlink" x="0px" y="0px"
	 viewBox="0 0 115.1 20.2" style="enable-background:new 0 0 115.1 20.2;" xml:space="preserve">
<style type="text/css">
	.st0{fill:#B3B3B3;}
	.st1{fill:#FFFFFF;}
	.st2{enable-background:new    ;}
</style>
<title>kim-taeyoung-th</title>
<g>
	<g id="Layer_1-2">
		<path class="st0" d="M17.4,2.9h94.1c2,0,3.6,1.6,3.6,3.6v7.2c0,2-1.6,3.6-3.6,3.6H17.4c-2,0-3.6-1.6-3.6-3.6V6.5
			C13.8,4.5,15.4,2.9,17.4,2.9z"/>
		<circle cx="10.1" cy="10.1" r="10.1"/>
		<path class="st1" d="M14.8,9.5l-0.9-0.9V6.4c0-0.3-0.3-0.6-0.6-0.6h-0.6C12.3,5.8,12,6,12,6.4v0.3l-1.3-1.3
			c-0.2-0.2-0.4-0.3-0.6-0.3c-0.2,0-0.5,0.2-0.6,0.3l-4,4c-0.2,0.1-0.3,0.4-0.3,0.6c0,0.3,0.3,0.6,0.6,0.6c0,0,0,0,0,0h0.6v3.8
			c0,0.3,0.3,0.6,0.6,0.6h1.8V12c0-0.3,0.3-0.6,0.6-0.6l0,0h1.3c0.3,0,0.6,0.3,0.6,0.6v3.1h1.9c0.3,0,0.6-0.3,0.6-0.6v-3.8h0.6
			c0.3,0,0.6-0.3,0.6-0.6c0,0,0,0,0,0C15.1,9.9,15,9.6,14.8,9.5z"/>
		<g class="st2">
			<path d="M29.5,13.7l-1.2-3.2l-0.6,1.1v2.2h-1V6.3h1v3.3l1.6-3.3h1l-1.4,2.9l1.7,4.4H29.5z"/>
			<path d="M31.3,13.7V6.3h1v7.4H31.3z"/>
			<path d="M37.2,13.7V9.3l-1,3.1h-0.5l-1-3.1v4.4h-1V6.3h1l1.4,3.9l1.4-3.9h1v7.4H37.2z"/>
			<path d="M42.2,13.7V7.3h-1.2v-1h3.5v1h-1.3v6.4H42.2z"/>
			<path d="M44.6,13.7l1.5-7.4h1l1.6,7.4h-1.1l-0.3-1.6H46l-0.3,1.6H44.6z M46.2,11.1h1l-0.5-2.6L46.2,11.1z"/>
			<path d="M52.5,12.7v1h-3.1V6.3h3.1v1h-2.1v2.2h1.8v1h-1.8v2.2H52.5z"/>
			<path d="M54.3,13.7v-3.2l-1.4-4.2h1.1l0.8,2.9l0.9-2.9h1.1l-1.5,4.2v3.2H54.3z"/>
			<path d="M57.5,7c0.2-0.2,0.4-0.4,0.6-0.6c0.3-0.1,0.5-0.2,0.8-0.2c0.3,0,0.5,0.1,0.8,0.2c0.2,0.1,0.4,0.3,0.6,0.5
				c0.2,0.2,0.3,0.4,0.3,0.6s0.1,0.4,0.1,0.6v3.7c0,0.2,0,0.4-0.1,0.6s-0.1,0.3-0.3,0.6c-0.1,0.2-0.3,0.4-0.6,0.5
				c-0.3,0.1-0.5,0.2-0.8,0.2c-0.3,0-0.7-0.1-1-0.3s-0.5-0.4-0.6-0.6c-0.1-0.2-0.2-0.4-0.2-0.5c0-0.1,0-0.3,0-0.5V8.1
				c0-0.2,0-0.4,0.1-0.6S57.4,7.2,57.5,7z M59.6,7.6c-0.1-0.2-0.3-0.3-0.6-0.3c-0.1,0-0.2,0-0.4,0.1c-0.1,0.1-0.2,0.1-0.3,0.2
				c0,0.1-0.1,0.2-0.1,0.3s0,0.2,0,0.2v3.7c0,0.1,0,0.2,0,0.2c0,0.1,0.1,0.2,0.2,0.4s0.3,0.2,0.5,0.2c0.1,0,0.3,0,0.4-0.1
				s0.2-0.1,0.2-0.2c0-0.1,0.1-0.2,0.1-0.2s0-0.2,0-0.3V8.1c0-0.1,0-0.2,0-0.3S59.6,7.7,59.6,7.6z"/>
			<path d="M65,12.9c-0.2,0.3-0.4,0.5-0.6,0.6c-0.3,0.2-0.5,0.2-0.8,0.2c-0.3,0-0.6-0.1-0.9-0.2c-0.3-0.2-0.5-0.3-0.6-0.5
				c-0.1-0.2-0.2-0.4-0.2-0.5s0-0.3,0-0.5V6.3h1V12c0,0.1,0,0.2,0,0.2c0,0.1,0.1,0.2,0.2,0.3c0.1,0.1,0.3,0.2,0.5,0.2
				c0.2,0,0.4-0.1,0.5-0.2s0.2-0.3,0.2-0.5V6.3h1V12c0,0.2,0,0.3-0.1,0.5C65.1,12.6,65.1,12.8,65,12.9z"/>
			<path d="M69,13.7l-1.6-4.5v4.5h-1V6.3h1l1.6,4.5V6.3h1v7.4H69z"/>
			<path d="M74.4,12.9c-0.2,0.3-0.4,0.5-0.6,0.6c-0.3,0.1-0.6,0.2-0.9,0.2c-0.3,0-0.5-0.1-0.8-0.2s-0.5-0.3-0.6-0.5
				c-0.1-0.2-0.2-0.4-0.3-0.6s-0.1-0.4-0.1-0.7V8.1c0-0.2,0-0.4,0.1-0.5s0.2-0.4,0.4-0.8c0.2-0.4,0.7-0.5,1.3-0.5
				c0.3,0,0.6,0.1,0.8,0.2C74,6.6,74.2,6.8,74.3,7s0.2,0.4,0.3,0.6c0,0.2,0.1,0.4,0.1,0.6v0.3h-1V8.1c0-0.1,0-0.2,0-0.3
				c0-0.1-0.1-0.2-0.2-0.3c-0.1-0.1-0.3-0.2-0.5-0.2c-0.3,0-0.5,0.1-0.6,0.2c-0.1,0.2-0.1,0.3-0.2,0.3c0,0.1,0,0.2,0,0.3v3.7
				c0,0.1,0,0.2,0,0.3c0,0.1,0.1,0.2,0.2,0.3s0.3,0.2,0.5,0.2c0.3,0,0.5-0.1,0.5-0.2c0.1-0.2,0.1-0.3,0.1-0.3c0-0.1,0-0.2,0-0.3
				v-1.3h-0.8V9.6h1.9v2.2c0,0.3,0,0.5-0.1,0.7C74.5,12.6,74.4,12.8,74.4,12.9z"/>
			<path d="M78.4,13.7V7.3h-1.2v-1h3.5v1h-1.3v6.4H78.4z"/>
			<path d="M81.5,13.7V6.3h1v3.1h1.3V6.3h1v7.4h-1v-3.3h-1.3v3.3H81.5z"/>
			<path d="M85.5,13.7L87,6.3h1l1.6,7.4h-1.1l-0.3-1.6h-1.4l-0.3,1.6H85.5z M87,11.1h1l-0.5-2.6L87,11.1z"/>
			<path d="M90.2,13.7V6.3h1v7.4H90.2z"/>
			<path d="M95.5,13.7h-3.1V6.3h1v6.3h2.1V13.7z"/>
			<path d="M95.7,13.7l1.5-7.4h1l1.6,7.4h-1.1l-0.3-1.6h-1.4l-0.3,1.6H95.7z M97.3,11.1h1l-0.5-2.6L97.3,11.1z"/>
			<path d="M103.2,13.7l-1.6-4.5v4.5h-1V6.3h1l1.6,4.5V6.3h1v7.4H103.2z"/>
			<path d="M106.9,6.3c0.5,0,0.9,0.2,1.2,0.5c0.3,0.3,0.5,0.7,0.5,1.2v3.8c0,0.5-0.2,1-0.5,1.3s-0.8,0.5-1.3,0.5h-1.6V6.3H106.9z
				 M107.6,11.9V8.1c0-0.2-0.1-0.4-0.2-0.5c-0.1-0.1-0.3-0.2-0.5-0.2h-0.5v5.4h0.5C107.4,12.7,107.6,12.4,107.6,11.9z"/>
		</g>
	</g>
</g>
</svg>
