<svg id="Layer_1" data-name="Layer 1" xmlns="http://www.w3.org/2000/svg" viewBox="0 0 115.12 20.24"><defs><style>.cls-1{fill:#b3b3b3;}.cls-2{fill:#fff;}.cls-3{isolation:isolate;}</style></defs><title>koo-jungmo-th</title><g id="Layer_1-2" data-name="Layer 1-2"><rect class="cls-1" x="13.81" y="2.94" width="101.31" height="14.37" rx="3.59"/><circle cx="10.12" cy="10.12" r="10.12"/><path class="cls-2" d="M14.78,9.5l-.91-.91V6.37a.62.62,0,0,0-.62-.62h-.63a.62.62,0,0,0-.62.62v.35L10.75,5.47a.88.88,0,0,0-.63-.35.86.86,0,0,0-.62.35l-4,4a.86.86,0,0,0-.35.62.62.62,0,0,0,.61.63H6.4V14.5a.64.64,0,0,0,.63.62H8.87V12a.63.63,0,0,1,.63-.63h1.25a.64.64,0,0,1,.62.63v3.12h1.88a.62.62,0,0,0,.62-.62V10.75h.63a.62.62,0,0,0,.62-.62h0A.85.85,0,0,0,14.78,9.5Z"/><g class="cls-3"><path d="M30.35,13.7V9.26l-1,3.1h-.53l-1-3.1V13.7h-1V6.34h1l1.4,3.92,1.36-3.92h1V13.7Z"/><path d="M32.53,13.7V6.34h1.84a1.64,1.64,0,0,1,1.22.51,1.71,1.71,0,0,1,.5,1.23v.69a1.74,1.74,0,0,1-.86,1.55l1.11,3.38H35.23l-1-3.16h-.66V13.7Zm2.34-4.31A.72.72,0,0,0,35,9.11a1.22,1.22,0,0,0,0-.34V8.08a.77.77,0,0,0-.19-.55.66.66,0,0,0-.52-.21h-.75v2.3h.73A.75.75,0,0,0,34.87,9.39Z"/><path d="M37,13.7v-1h1v1Z"/><path d="M42,13.7l-1.17-3.23-.58,1.07V13.7h-1V6.34h1V9.63l1.57-3.29h1L41.42,9.28,43.1,13.7Z"/><path d="M44.07,7.05a1.82,1.82,0,0,1,.64-.56,1.64,1.64,0,0,1,.8-.2,1.83,1.83,0,0,1,.77.16,1.74,1.74,0,0,1,.92,1,2.57,2.57,0,0,1,.08.65v3.74a2.37,2.37,0,0,1-.06.57A1.72,1.72,0,0,1,47,13a1.67,1.67,0,0,1-.58.53,1.69,1.69,0,0,1-.83.22,1.78,1.78,0,0,1-1-.27,1.44,1.44,0,0,1-.6-.6,1.93,1.93,0,0,1-.2-.54,2.17,2.17,0,0,1,0-.47V8.14a2.51,2.51,0,0,1,.07-.59A1.56,1.56,0,0,1,44.07,7.05Zm2,.58a.69.69,0,0,0-.58-.3.72.72,0,0,0-.36.11.66.66,0,0,0-.26.23.8.8,0,0,0-.09.26,2,2,0,0,0,0,.22v3.74a2.09,2.09,0,0,0,0,.24,1,1,0,0,0,.18.36.62.62,0,0,0,.54.22.69.69,0,0,0,.36-.09.55.55,0,0,0,.23-.22.77.77,0,0,0,.1-.23,2,2,0,0,0,0-.28V8.15a2,2,0,0,0,0-.31A.53.53,0,0,0,46.11,7.63Z"/><path d="M48.59,7.05a1.82,1.82,0,0,1,.64-.56,1.64,1.64,0,0,1,.8-.2,1.8,1.8,0,0,1,.77.16,1.74,1.74,0,0,1,.92,1,2.18,2.18,0,0,1,.08.65v3.74a2.37,2.37,0,0,1-.06.57,1.9,1.9,0,0,1-.25.56,1.8,1.8,0,0,1-.59.53,1.69,1.69,0,0,1-.83.22,1.73,1.73,0,0,1-1-.27,1.47,1.47,0,0,1-.61-.6,1.93,1.93,0,0,1-.2-.54,2.17,2.17,0,0,1,0-.47V8.14a2.05,2.05,0,0,1,.08-.59A1.53,1.53,0,0,1,48.59,7.05Zm2,.58a.69.69,0,0,0-.57-.3.72.72,0,0,0-.37.11.66.66,0,0,0-.26.23,1.14,1.14,0,0,0-.09.26,2,2,0,0,0,0,.22v3.74a1.06,1.06,0,0,0,0,.24.8.8,0,0,0,.17.36.63.63,0,0,0,.55.22.68.68,0,0,0,.35-.09.55.55,0,0,0,.23-.22.77.77,0,0,0,.1-.23,2,2,0,0,0,0-.28V8.15a2,2,0,0,0,0-.31A.53.53,0,0,0,50.63,7.63Z"/></g></g></svg>