<svg xmlns="http://www.w3.org/2000/svg" viewBox="0 0 67.18 30.61"><defs><style>.cls-1{fill:#fff;}</style></defs><title>officialsns</title><g id="officialsns" data-name="officialsns"><g id="officialsns" data-name="officialsns"><path class="cls-1" d="M5.76,3.31V3.06a1.44,1.44,0,0,0-.07-.44,1,1,0,0,0-.28-.44,1.92,1.92,0,0,0-.59-.35,3.26,3.26,0,0,0-1-.14,3,3,0,0,0-1,.14,1.36,1.36,0,0,0-.57.38A1,1,0,0,0,2,2.67a1.71,1.71,0,0,0-.06.43V13.59A1.85,1.85,0,0,0,2,14a1,1,0,0,0,.26.45,1.55,1.55,0,0,0,.57.36,2.71,2.71,0,0,0,1,.14,3,3,0,0,0,1-.14,1.74,1.74,0,0,0,.59-.35,1,1,0,0,0,.28-.44,1.41,1.41,0,0,0,.07-.42v-.24H7.67V14a3.87,3.87,0,0,1-.09.72,2,2,0,0,1-.47.9A3.13,3.13,0,0,1,6,16.35a5.67,5.67,0,0,1-2.11.32,5.73,5.73,0,0,1-2.12-.32,3.27,3.27,0,0,1-1.16-.78,2,2,0,0,1-.48-.91A4,4,0,0,1,0,14V2.72A4.09,4.09,0,0,1,.09,2,2,2,0,0,1,.57,1.1,3.13,3.13,0,0,1,1.73.33,5.5,5.5,0,0,1,3.85,0,5.45,5.45,0,0,1,6,.33a3,3,0,0,1,1.15.77A2,2,0,0,1,7.58,2a4.09,4.09,0,0,1,.09.71v.59Z"/><path class="cls-1" d="M16.92,16.51l-2.43-7L14,9.71l-.36.12-.34.11a3.43,3.43,0,0,0-.52.23,1.23,1.23,0,0,0-.36.33,1,1,0,0,0-.18.52v5.49H10.37V2.75A3.88,3.88,0,0,1,10.46,2a2,2,0,0,1,.47-.91A3.13,3.13,0,0,1,12.08.35,5.5,5.5,0,0,1,14.2,0a5.45,5.45,0,0,1,2.11.33,3.13,3.13,0,0,1,1.15.78,2,2,0,0,1,.47.91,3.88,3.88,0,0,1,.09.71V6.5a2.67,2.67,0,0,1-.39,1.38,2.69,2.69,0,0,1-1.34,1l2.65,7.6ZM12.79,8.23,13.43,8l.68-.24.6-.21L15,7.47l.25-.09A1.15,1.15,0,0,0,16,6.82a1.42,1.42,0,0,0,.17-.63V3.08a1.48,1.48,0,0,0-.07-.44.87.87,0,0,0-.28-.43,1.59,1.59,0,0,0-.59-.35,2.94,2.94,0,0,0-1-.15,2.69,2.69,0,0,0-1,.15,1.41,1.41,0,0,0-.57.37,1,1,0,0,0-.26.46,1.78,1.78,0,0,0-.06.44V8.42Z"/><path class="cls-1" d="M29.07,16.51H27.16V9l-.49.18-1,.34-1.35.44a1.72,1.72,0,0,0-.52.23,1.53,1.53,0,0,0-.37.35.86.86,0,0,0-.17.55v5.44H21.42V2.75A3.88,3.88,0,0,1,21.51,2,2,2,0,0,1,22,1.13,3.13,3.13,0,0,1,23.13.35,5.47,5.47,0,0,1,25.25,0a5.48,5.48,0,0,1,2.11.33,3.13,3.13,0,0,1,1.15.78A2,2,0,0,1,29,2a3.88,3.88,0,0,1,.09.71ZM24,8.18l1-.34.88-.3.44-.16A1.15,1.15,0,0,0,27,6.82a1.76,1.76,0,0,0,.16-.65V3.08a1.9,1.9,0,0,0-.07-.44,1,1,0,0,0-.28-.43,1.56,1.56,0,0,0-.6-.35,2.88,2.88,0,0,0-1-.15,2.65,2.65,0,0,0-1,.15,1.35,1.35,0,0,0-.57.37.94.94,0,0,0-.26.46,1.78,1.78,0,0,0-.06.44V8.42Z"/><path class="cls-1" d="M40.05,14.29V15a3,3,0,0,1,0,.55,1.63,1.63,0,0,1-.15.44,1.87,1.87,0,0,1-.32.4,1.94,1.94,0,0,1-1,.54,2.19,2.19,0,0,1-1.17,0L36.1,16.5l-1.25-.44a3.4,3.4,0,0,1-.44-.14l-.32-.13a4.13,4.13,0,0,1-.57-.22,2.14,2.14,0,0,1-.55-.39,1.9,1.9,0,0,1-.41-.68,3,3,0,0,1-.16-1.09V.2h1.89V12.73a.37.37,0,0,1,0,.12,1.44,1.44,0,0,0,.18.75,1.76,1.76,0,0,0,.47.51,2.63,2.63,0,0,0,.63.31c.23.08.44.15.63.23a9,9,0,0,0,1.06.29,1.07,1.07,0,0,0,.58,0,.44.44,0,0,0,.23-.33,3.36,3.36,0,0,0,0-.62V12h0V.2h1.89V14.29Z"/><path class="cls-1" d="M45.56.22V2.5H43.67V.22ZM43.67,4.77h1.89V16.51H43.67Z"/><path class="cls-1" d="M56.09,1.8H53.21V16.51H51.32V1.8H48.44V.2h7.65Z"/><path class="cls-1" d="M66.44,11.43V14a3.87,3.87,0,0,1-.09.72,2.06,2.06,0,0,1-.47.9,3.13,3.13,0,0,1-1.15.78,5.47,5.47,0,0,1-2.11.32,5.53,5.53,0,0,1-2.12-.32,3.13,3.13,0,0,1-1.15-.78,2,2,0,0,1-.47-.91,4,4,0,0,1-.09-.71v-.63h1.89v.27a1.78,1.78,0,0,0,.06.44,1,1,0,0,0,.26.45,1.55,1.55,0,0,0,.57.36,2.65,2.65,0,0,0,1,.15,2.88,2.88,0,0,0,1-.15,1.7,1.7,0,0,0,.6-.35.92.92,0,0,0,.28-.44,1.31,1.31,0,0,0,.07-.41V11.21a1.62,1.62,0,0,0-.16-.65,1.16,1.16,0,0,0-.74-.57l-.34-.11-.36-.14-1.69-.56a.36.36,0,0,0-.13,0A3.22,3.22,0,0,1,59.31,8a2.55,2.55,0,0,1-.52-1.53V.2h1.89v6a1.64,1.64,0,0,0,.2.63,1.17,1.17,0,0,0,.72.52l.23.09.29.09c.26.11.56.22.91.34l1,.33.27.08.25.08V.2h1.91V11.43Z"/><path class="cls-1" d="M4.76,28.78v.14a2.32,2.32,0,0,1-.06.45,1.21,1.21,0,0,1-.29.56,2.1,2.1,0,0,1-.71.48,3.59,3.59,0,0,1-1.32.2,3.59,3.59,0,0,1-1.32-.2,2.1,2.1,0,0,1-.71-.48,1.19,1.19,0,0,1-.29-.57A2.34,2.34,0,0,1,0,28.92v-7a2.34,2.34,0,0,1,.06-.44,1.19,1.19,0,0,1,.29-.57,2.1,2.1,0,0,1,.71-.48,3.59,3.59,0,0,1,1.32-.2,3.59,3.59,0,0,1,1.32.2,2.1,2.1,0,0,1,.71.48,1.19,1.19,0,0,1,.29.57,2.34,2.34,0,0,1,.06.44v6.85Zm-1.19-.21h0V22.3h0v-.16a.93.93,0,0,0,0-.27.65.65,0,0,0-.17-.27A.93.93,0,0,0,3,21.38a1.91,1.91,0,0,0-.65-.09,1.71,1.71,0,0,0-.61.09,1.06,1.06,0,0,0-.36.23.65.65,0,0,0-.16.29,1.39,1.39,0,0,0,0,.27v6.52a1.41,1.41,0,0,0,0,.28.62.62,0,0,0,.16.28,1,1,0,0,0,.36.22,1.71,1.71,0,0,0,.61.09A1.91,1.91,0,0,0,3,29.47a.93.93,0,0,0,.37-.22A.65.65,0,0,0,3.53,29a.87.87,0,0,0,0-.26Z"/><path class="cls-1" d="M8,24.89h2.57V26H8v4.52H6.83V22a1.56,1.56,0,0,1,.1-.55,1.51,1.51,0,0,1,.79-.89,1.52,1.52,0,0,1,.69-.15H11.2v1H8.81a.77.77,0,0,0-.59.25.87.87,0,0,0-.21.59v2.71Z"/><path class="cls-1" d="M14.06,24.89h2.57V26H14.06v4.52H12.88V22a1.56,1.56,0,0,1,.1-.55,1.44,1.44,0,0,1,.29-.51,1.61,1.61,0,0,1,.5-.38,1.52,1.52,0,0,1,.69-.15h2.79v1h-2.4a.76.76,0,0,0-.58.25.87.87,0,0,0-.21.59v2.71Z"/><path class="cls-1" d="M20.27,20.38v1.41H19.1V20.38ZM19.1,23.21h1.17v7.3H19.1Z"/><path class="cls-1" d="M25.93,22.3v-.16a1.47,1.47,0,0,0,0-.27.59.59,0,0,0-.18-.27,1,1,0,0,0-.37-.22,1.85,1.85,0,0,0-.64-.09,1.67,1.67,0,0,0-.61.09.9.9,0,0,0-.36.23.65.65,0,0,0-.16.29.93.93,0,0,0,0,.27v6.52a1,1,0,0,0,0,.28.62.62,0,0,0,.16.28.89.89,0,0,0,.36.22,1.67,1.67,0,0,0,.61.09,1.85,1.85,0,0,0,.64-.09,1,1,0,0,0,.37-.22.59.59,0,0,0,.18-.27,1.38,1.38,0,0,0,0-.26v-.15h1.19v.35a2.32,2.32,0,0,1-.06.45,1.31,1.31,0,0,1-.29.56,2,2,0,0,1-.72.48,3.5,3.5,0,0,1-1.31.2,3.59,3.59,0,0,1-1.32-.2,2,2,0,0,1-.72-.48,1.32,1.32,0,0,1-.3-.57,2.34,2.34,0,0,1-.06-.44v-7a2.34,2.34,0,0,1,.06-.44,1.32,1.32,0,0,1,.3-.57,2,2,0,0,1,.72-.48,3.59,3.59,0,0,1,1.32-.2,3.5,3.5,0,0,1,1.31.2,2,2,0,0,1,.72.48,1.29,1.29,0,0,1,.29.57,2.34,2.34,0,0,1,.06.44v.37Z"/><path class="cls-1" d="M30.14,20.38v1.41H29V20.38ZM29,23.21h1.18v7.3H29Z"/><path class="cls-1" d="M37,30.51H35.78V25.82l-.3.12-.59.21-.84.28a1.06,1.06,0,0,0-.33.14,1.12,1.12,0,0,0-.23.21.56.56,0,0,0-.1.35h0v3.37H32.21V22a2.24,2.24,0,0,1,.06-.44,1.24,1.24,0,0,1,.29-.57,1.81,1.81,0,0,1,.72-.48,3.28,3.28,0,0,1,1.31-.21,3.37,3.37,0,0,1,1.32.21,1.77,1.77,0,0,1,.71.48,1.26,1.26,0,0,1,.3.57A3.09,3.09,0,0,1,37,22Zm-3.16-5.18.59-.21.55-.19.27-.1a.67.67,0,0,0,.46-.35,1,1,0,0,0,.1-.41V22.16a1,1,0,0,0,0-.28.72.72,0,0,0-.17-.27,1.29,1.29,0,0,0-.37-.22,1.91,1.91,0,0,0-.65-.09,1.75,1.75,0,0,0-.61.09,1,1,0,0,0-.36.24.72.72,0,0,0-.16.28,1.39,1.39,0,0,0,0,.27v3.29Z"/><path class="cls-1" d="M43.19,29.52v1H40.63a1.51,1.51,0,0,1-.7-.14,1.57,1.57,0,0,1-.49-.38,1.63,1.63,0,0,1-.3-.51,1.83,1.83,0,0,1-.1-.55V20.36h1.18v8.35a.8.8,0,0,0,.22.57.74.74,0,0,0,.58.24h2.17Z"/><path class="cls-1" d="M53.52,28.92a2.32,2.32,0,0,1-.06.45,1.21,1.21,0,0,1-.29.56,2.1,2.1,0,0,1-.71.48,3.59,3.59,0,0,1-1.32.2,3.5,3.5,0,0,1-1.31-.2,2,2,0,0,1-.72-.48,1.19,1.19,0,0,1-.29-.57,2.34,2.34,0,0,1-.06-.44v-.35h1.18v.12A1.41,1.41,0,0,0,50,29a.72.72,0,0,0,.16.28,1,1,0,0,0,.36.22,1.71,1.71,0,0,0,.61.09,1.85,1.85,0,0,0,.64-.09.93.93,0,0,0,.37-.22.59.59,0,0,0,.18-.27.87.87,0,0,0,0-.26V27.2a.94.94,0,0,0-.1-.4.68.68,0,0,0-.46-.36l-.21-.07-.22-.08-1.05-.35-.09,0a2.08,2.08,0,0,1-1.12-.69,1.62,1.62,0,0,1-.32-.95V21.93a2.34,2.34,0,0,1,.06-.44,1.19,1.19,0,0,1,.29-.57,2,2,0,0,1,.72-.48,3.5,3.5,0,0,1,1.31-.2,3.59,3.59,0,0,1,1.32.2,2.1,2.1,0,0,1,.71.48,1.19,1.19,0,0,1,.29.57,2.34,2.34,0,0,1,.06.44v.37H52.33v-.16a.93.93,0,0,0,0-.27.59.59,0,0,0-.18-.27.93.93,0,0,0-.37-.22,1.85,1.85,0,0,0-.64-.09,1.71,1.71,0,0,0-.61.09,1.06,1.06,0,0,0-.36.23.76.76,0,0,0-.16.29,1.39,1.39,0,0,0,0,.27v1.89a1,1,0,0,0,.1.41.78.78,0,0,0,.47.35l.14.05.17.06.58.2c.22.07.42.14.61.22a2.12,2.12,0,0,1,.47.17,1.22,1.22,0,0,1,.45.24,1.89,1.89,0,0,1,.32.37,1.49,1.49,0,0,1,.27.87v1.92Z"/><path class="cls-1" d="M60.35,30.51H59.16V22.16a1,1,0,0,0,0-.28.61.61,0,0,0-.17-.27,1,1,0,0,0-.37-.22,1.91,1.91,0,0,0-.65-.09,1.75,1.75,0,0,0-.61.09,1,1,0,0,0-.36.24.72.72,0,0,0-.16.28,1.39,1.39,0,0,0,0,.27v8.33H55.59V22a2.24,2.24,0,0,1,.06-.44,1.24,1.24,0,0,1,.29-.57,1.81,1.81,0,0,1,.72-.48A3.28,3.28,0,0,1,58,20.25a3.37,3.37,0,0,1,1.32.21,1.77,1.77,0,0,1,.71.48,1.26,1.26,0,0,1,.3.57,3.09,3.09,0,0,1,.05.44v8.56Z"/><path class="cls-1" d="M67.18,28.92a2.17,2.17,0,0,1-.05.45,1.34,1.34,0,0,1-.3.56,1.91,1.91,0,0,1-.71.48,4.42,4.42,0,0,1-2.63,0,2,2,0,0,1-.72-.48,1.4,1.4,0,0,1-.29-.57,2.34,2.34,0,0,1-.06-.44v-.35H63.6v.12a1,1,0,0,0,0,.28.54.54,0,0,0,.16.28.92.92,0,0,0,.35.22,1.75,1.75,0,0,0,.61.09,1.91,1.91,0,0,0,.65-.09,1,1,0,0,0,.37-.22A.56.56,0,0,0,66,29a.91.91,0,0,0,0-.26V27.2a1.12,1.12,0,0,0-.1-.4.7.7,0,0,0-.47-.36l-.21-.07L65,26.29l-1-.35-.08,0a2,2,0,0,1-1.12-.69,1.57,1.57,0,0,1-.33-.95V21.93a2.34,2.34,0,0,1,.06-.44,1.4,1.4,0,0,1,.29-.57,2,2,0,0,1,.72-.48,4.42,4.42,0,0,1,2.63,0,1.91,1.91,0,0,1,.71.48,1.32,1.32,0,0,1,.3.57,2.16,2.16,0,0,1,.05.44v.37H66v-.16a1,1,0,0,0,0-.27.56.56,0,0,0-.17-.27,1,1,0,0,0-.37-.22,1.91,1.91,0,0,0-.65-.09,1.75,1.75,0,0,0-.61.09.93.93,0,0,0-.35.23.56.56,0,0,0-.16.29.93.93,0,0,0,0,.27v1.89a1,1,0,0,0,.11.41.76.76,0,0,0,.46.35l.14.05.17.06.58.2a6.09,6.09,0,0,1,.61.22,2.22,2.22,0,0,1,.48.17,1.18,1.18,0,0,1,.44.24,1.65,1.65,0,0,1,.33.37,1.48,1.48,0,0,1,.26.87v1.92Z"/></g></g></svg>