<svg id="Layer_1" data-name="Layer 1" xmlns="http://www.w3.org/2000/svg" viewBox="0 0 115.12 20.24"><defs><style>.cls-1{fill:#b3b3b3;}.cls-2{fill:#fff;}.cls-3{isolation:isolate;}</style></defs><title>park-serim-th</title><g id="Layer_1-2" data-name="Layer 1-2"><rect class="cls-1" x="13.81" y="2.94" width="101.31" height="14.37" rx="3.59"/><circle cx="10.12" cy="10.12" r="10.12"/><path class="cls-2" d="M14.78,9.5l-.91-.91V6.37a.62.62,0,0,0-.62-.62h-.63a.62.62,0,0,0-.62.62v.35L10.75,5.47a.88.88,0,0,0-.63-.35.86.86,0,0,0-.62.35l-4,4a.86.86,0,0,0-.35.62.62.62,0,0,0,.61.63H6.4V14.5a.64.64,0,0,0,.63.62H8.87V12a.63.63,0,0,1,.63-.63h1.25a.64.64,0,0,1,.62.63v3.12h1.88a.62.62,0,0,0,.62-.62V10.75h.63a.62.62,0,0,0,.62-.62h0A.85.85,0,0,0,14.78,9.5Z"/><g class="cls-3"><path d="M26.69,13.7V6.34h1.72a1.68,1.68,0,0,1,.64.14,1.51,1.51,0,0,1,.53.34,2.18,2.18,0,0,1,.36.52,1.28,1.28,0,0,1,.15.57V9a2.29,2.29,0,0,1-.11.73,1.56,1.56,0,0,1-.38.6,1.62,1.62,0,0,1-.58.38,2,2,0,0,1-.73.12h-.55V13.7Zm2.22-4.09A.48.48,0,0,0,29,9.4a1.14,1.14,0,0,0,0-.28V8a.69.69,0,0,0-.19-.51.65.65,0,0,0-.5-.2h-.64V9.82h.55a1.16,1.16,0,0,0,.35,0A.56.56,0,0,0,28.91,9.61Z"/><path d="M30.28,13.7l1.53-7.36h1l1.64,7.36H33.34l-.29-1.58H31.69l-.3,1.58Zm1.58-2.56h1l-.49-2.62Z"/><path d="M35,13.7V6.34h1.83a1.64,1.64,0,0,1,1.23.51,1.7,1.7,0,0,1,.49,1.23v.69a1.74,1.74,0,0,1-.86,1.55L38.8,13.7H37.7l-1-3.16H36V13.7Zm2.33-4.31a.74.74,0,0,0,.14-.28,1.79,1.79,0,0,0,0-.34V8.08a.81.81,0,0,0-.18-.55.68.68,0,0,0-.53-.21H36v2.3h.74A.75.75,0,0,0,37.33,9.39Z"/><path d="M42.36,13.7l-1.17-3.23-.58,1.07V13.7h-1V6.34h1V9.63l1.56-3.29h1L41.78,9.28l1.69,4.42Z"/><path d="M46.89,11.86a2.73,2.73,0,0,0,0,.32,1.26,1.26,0,0,0,.17.32.63.63,0,0,0,.55.21,1,1,0,0,0,.41-.09.74.74,0,0,0,.28-.24.61.61,0,0,0,.09-.31c0-.11,0-.18,0-.22v-.51a2.38,2.38,0,0,0,0-.33.48.48,0,0,0-.13-.24,1.27,1.27,0,0,0-.33-.23q-.23-.1-.75-.3a2.13,2.13,0,0,1-.9-.63,1.71,1.71,0,0,1-.36-1.16V8.12a1.87,1.87,0,0,1,.5-1.29,1.63,1.63,0,0,1,1.25-.54,1.68,1.68,0,0,1,1.27.53,1.82,1.82,0,0,1,.51,1.3v.33h-1V8.12a1,1,0,0,0,0-.26.9.9,0,0,0-.17-.32.62.62,0,0,0-.52-.21.67.67,0,0,0-.52.23.79.79,0,0,0-.21.56v.33a2.16,2.16,0,0,0,0,.31A.46.46,0,0,0,47.1,9a.79.79,0,0,0,.28.21l.72.28a2.37,2.37,0,0,1,.94.63,1.66,1.66,0,0,1,.41,1.18v.59a2.41,2.41,0,0,1-.07.64,2.53,2.53,0,0,1-.45.77,1.53,1.53,0,0,1-1.28.49,1.56,1.56,0,0,1-1.38-.63,2.23,2.23,0,0,1-.43-1.27V11.6h1Z"/><path d="M53.52,12.66v1H50.39V6.34h3.13v1H51.43V9.49h1.84v1H51.43v2.18Z"/><path d="M54.48,13.7V6.34h1.83a1.64,1.64,0,0,1,1.23.51A1.7,1.7,0,0,1,58,8.08v.69a1.72,1.72,0,0,1-.86,1.55l1.11,3.38h-1.1l-1-3.16h-.66V13.7Zm2.33-4.31A.74.74,0,0,0,57,9.11a1.76,1.76,0,0,0,0-.34V8.08a.81.81,0,0,0-.19-.55.68.68,0,0,0-.53-.21h-.75v2.3h.74A.75.75,0,0,0,56.81,9.39Z"/><path d="M59,13.7V6.34h1V13.7Z"/><path d="M64.87,13.7V9.26l-1,3.1H63.3l-1-3.1V13.7h-1V6.34h1l1.39,3.92L65,6.34h1V13.7Z"/><path d="M69.83,13.7V7.32H68.6v-1h3.53v1H70.88V13.7Z"/><path d="M72.87,13.7V6.34h1V9.49h1.32V6.34h1V13.7h-1V10.41H73.91V13.7Z"/><path d="M76.86,13.7,78.4,6.34h1l1.64,7.36H79.93l-.3-1.58H78.27L78,13.7Zm1.59-2.56h1l-.5-2.62Z"/><path d="M81.59,13.7V6.34h1V13.7Z"/><path d="M86.92,13.7H83.79V6.34h1v6.32h2.08Z"/><path d="M87.15,13.7l1.53-7.36h1l1.64,7.36H90.21l-.29-1.58H88.56l-.3,1.58Zm1.58-2.56h1l-.49-2.62Z"/><path d="M94.56,13.7,92.92,9.22V13.7h-1V6.34h1l1.62,4.46V6.34h1.05V13.7Z"/><path d="M98.34,6.34a1.7,1.7,0,0,1,1.22.5,1.65,1.65,0,0,1,.51,1.21v3.83a1.8,1.8,0,0,1-.49,1.31,1.67,1.67,0,0,1-1.27.51H96.68V6.34ZM99,11.88V8.05a.65.65,0,0,0-.23-.51.72.72,0,0,0-.53-.21h-.54v5.39h.51C98.76,12.72,99,12.44,99,11.88Z"/></g></g></svg>