<?xml version="1.0" encoding="utf-8"?>
<!-- Generator: Adobe Illustrator 23.0.3, SVG Export Plug-In . SVG Version: 6.00 Build 0)  -->
<svg version="1.1" id="Layer_1" xmlns="http://www.w3.org/2000/svg" xmlns:xlink="http://www.w3.org/1999/xlink" x="0px" y="0px"
	 viewBox="0 0 115.1 20.2" style="enable-background:new 0 0 115.1 20.2;" xml:space="preserve">
<style type="text/css">
	.st0{fill:#B3B3B3;}
	.st1{fill:#FFFFFF;}
	.st2{enable-background:new    ;}
</style>
<title>seo-woobin-th</title>
<g>
	<g id="Layer_1-2">
		<path class="st0" d="M17.4,2.9h94.1c2,0,3.6,1.6,3.6,3.6v7.2c0,2-1.6,3.6-3.6,3.6H17.4c-2,0-3.6-1.6-3.6-3.6V6.5
			C13.8,4.5,15.4,2.9,17.4,2.9z"/>
		<circle cx="10.1" cy="10.1" r="10.1"/>
		<path class="st1" d="M14.8,9.5l-0.9-0.9V6.4c0-0.3-0.3-0.6-0.6-0.6h-0.6C12.3,5.8,12,6,12,6.4v0.3l-1.3-1.3
			c-0.2-0.2-0.4-0.3-0.6-0.3c-0.2,0-0.5,0.2-0.6,0.3l-4,4c-0.2,0.1-0.3,0.4-0.3,0.6c0,0.3,0.3,0.6,0.6,0.6c0,0,0,0,0,0h0.6v3.8
			c0,0.3,0.3,0.6,0.6,0.6h1.8V12c0-0.3,0.3-0.6,0.6-0.6l0,0h1.3c0.3,0,0.6,0.3,0.6,0.6v3.1h1.9c0.3,0,0.6-0.3,0.6-0.6v-3.8h0.6
			c0.3,0,0.6-0.3,0.6-0.6c0,0,0,0,0,0C15.1,9.9,15,9.6,14.8,9.5z"/>
		<g class="st2">
			<path d="M27.5,11.9c0,0.1,0,0.2,0,0.3c0,0.1,0.1,0.2,0.2,0.3c0.1,0.1,0.3,0.2,0.5,0.2c0.1,0,0.3,0,0.4-0.1s0.2-0.1,0.3-0.2
				s0.1-0.2,0.1-0.3c0-0.1,0-0.2,0-0.2v-0.5c0-0.1,0-0.3,0-0.3c0-0.1-0.1-0.2-0.1-0.2c-0.1-0.1-0.2-0.2-0.3-0.2s-0.4-0.2-0.7-0.3
				c-0.4-0.1-0.7-0.3-0.9-0.6c-0.2-0.3-0.4-0.7-0.4-1.2V8.1c0-0.5,0.2-0.9,0.5-1.3c0.3-0.4,0.8-0.5,1.2-0.5c0.5,0,0.9,0.2,1.3,0.5
				C29.8,7.2,30,7.6,30,8.1v0.3h-1V8.1c0-0.1,0-0.2,0-0.3c0-0.1-0.1-0.2-0.2-0.3c-0.1-0.1-0.3-0.2-0.5-0.2c-0.2,0-0.4,0.1-0.5,0.2
				s-0.2,0.3-0.2,0.6v0.3c0,0.1,0,0.2,0,0.3c0,0.1,0,0.1,0.1,0.2c0.1,0.1,0.2,0.2,0.3,0.2c0.1,0.1,0.4,0.2,0.7,0.3
				c0.4,0.1,0.7,0.3,0.9,0.6c0.3,0.3,0.4,0.7,0.4,1.2v0.6c0,0.2,0,0.5-0.1,0.6c0,0.2-0.2,0.4-0.4,0.8c-0.2,0.3-0.7,0.5-1.3,0.5
				c-0.6,0-1.1-0.2-1.4-0.6c-0.3-0.4-0.4-0.8-0.4-1.3v-0.3h1V11.9z"/>
			<path d="M34.1,12.7v1h-3.1V6.3h3.1v1H32v2.2h1.8v1H32v2.2H34.1z"/>
			<path d="M35.3,7c0.2-0.2,0.4-0.4,0.6-0.6c0.3-0.1,0.5-0.2,0.8-0.2c0.3,0,0.5,0.1,0.8,0.2c0.2,0.1,0.4,0.3,0.6,0.5
				s0.3,0.4,0.3,0.6s0.1,0.4,0.1,0.6v3.7c0,0.2,0,0.4-0.1,0.6c0,0.2-0.1,0.3-0.3,0.6c-0.1,0.2-0.3,0.4-0.6,0.5
				c-0.3,0.1-0.5,0.2-0.8,0.2c-0.3,0-0.7-0.1-1-0.3s-0.5-0.4-0.6-0.6c-0.1-0.2-0.2-0.4-0.2-0.5c0-0.1,0-0.3,0-0.5V8.1
				c0-0.2,0-0.4,0.1-0.6S35.2,7.2,35.3,7z M37.3,7.6c-0.1-0.2-0.3-0.3-0.6-0.3c-0.1,0-0.2,0-0.4,0.1c-0.1,0.1-0.2,0.1-0.3,0.2
				c0,0.1-0.1,0.2-0.1,0.3s0,0.2,0,0.2v3.7c0,0.1,0,0.2,0,0.2c0,0.1,0.1,0.2,0.2,0.4s0.3,0.2,0.5,0.2c0.1,0,0.3,0,0.4-0.1
				c0.1-0.1,0.2-0.1,0.2-0.2c0-0.1,0.1-0.2,0.1-0.2s0-0.2,0-0.3V8.1c0-0.1,0-0.2,0-0.3C37.4,7.8,37.4,7.7,37.3,7.6z"/>
			<path d="M44.7,13.7l-0.9-4.4L43,13.7h-1L41,6.3h1.1l0.5,4.5l0.8-4.5h0.8l0.9,4.5l0.5-4.5h1.1l-1,7.4H44.7z"/>
			<path d="M47.6,7c0.2-0.2,0.4-0.4,0.6-0.6c0.3-0.1,0.5-0.2,0.8-0.2c0.3,0,0.5,0.1,0.8,0.2c0.2,0.1,0.4,0.3,0.6,0.5
				s0.3,0.4,0.3,0.6s0.1,0.4,0.1,0.6v3.7c0,0.2,0,0.4-0.1,0.6c0,0.2-0.1,0.3-0.3,0.6c-0.1,0.2-0.3,0.4-0.6,0.5
				c-0.3,0.1-0.5,0.2-0.8,0.2c-0.3,0-0.7-0.1-1-0.3s-0.5-0.4-0.6-0.6c-0.1-0.2-0.2-0.4-0.2-0.5c0-0.1,0-0.3,0-0.5V8.1
				c0-0.2,0-0.4,0.1-0.6S47.5,7.2,47.6,7z M49.7,7.6c-0.1-0.2-0.3-0.3-0.6-0.3c-0.1,0-0.2,0-0.4,0.1c-0.1,0.1-0.2,0.1-0.3,0.2
				c0,0.1-0.1,0.2-0.1,0.3s0,0.2,0,0.2v3.7c0,0.1,0,0.2,0,0.2c0,0.1,0.1,0.2,0.2,0.4s0.3,0.2,0.5,0.2c0.1,0,0.3,0,0.4-0.1
				c0.1-0.1,0.2-0.1,0.2-0.2c0-0.1,0.1-0.2,0.1-0.2s0-0.2,0-0.3V8.1c0-0.1,0-0.2,0-0.3C49.8,7.8,49.7,7.7,49.7,7.6z"/>
			<path d="M52.2,7c0.2-0.2,0.4-0.4,0.6-0.6c0.3-0.1,0.5-0.2,0.8-0.2c0.3,0,0.5,0.1,0.8,0.2c0.2,0.1,0.4,0.3,0.6,0.5
				s0.3,0.4,0.3,0.6s0.1,0.4,0.1,0.6v3.7c0,0.2,0,0.4-0.1,0.6c0,0.2-0.1,0.3-0.3,0.6c-0.1,0.2-0.3,0.4-0.6,0.5
				c-0.3,0.1-0.5,0.2-0.8,0.2c-0.3,0-0.7-0.1-1-0.3s-0.5-0.4-0.6-0.6c-0.1-0.2-0.2-0.4-0.2-0.5c0-0.1,0-0.3,0-0.5V8.1
				c0-0.2,0-0.4,0.1-0.6S52.1,7.2,52.2,7z M54.2,7.6c-0.1-0.2-0.3-0.3-0.6-0.3c-0.1,0-0.2,0-0.4,0.1c-0.1,0.1-0.2,0.1-0.3,0.2
				c0,0.1-0.1,0.2-0.1,0.3s0,0.2,0,0.2v3.7c0,0.1,0,0.2,0,0.2c0,0.1,0.1,0.2,0.2,0.4s0.3,0.2,0.5,0.2c0.1,0,0.3,0,0.4-0.1
				c0.1-0.1,0.2-0.1,0.2-0.2c0-0.1,0.1-0.2,0.1-0.2s0-0.2,0-0.3V8.1c0-0.1,0-0.2,0-0.3C54.3,7.8,54.3,7.7,54.2,7.6z"/>
			<path d="M58.2,6.3c0.2,0,0.4,0,0.6,0.1C59,6.6,59.2,6.7,59.5,7c0.2,0.2,0.4,0.6,0.4,1.1v0.6c0,0.6-0.2,1-0.7,1.2
				c0.4,0.3,0.7,0.7,0.7,1.2v0.9c0,0.5-0.2,0.9-0.5,1.3c-0.3,0.3-0.8,0.5-1.3,0.5h-1.6V6.3H58.2z M58.8,8.5V8.1
				c0-0.2-0.1-0.4-0.2-0.5c-0.1-0.1-0.3-0.2-0.5-0.2h-0.6v2h0.6c0.2,0,0.4-0.1,0.5-0.2C58.7,9,58.8,8.8,58.8,8.5z M58.8,11.9v-0.9
				c0-0.2-0.1-0.4-0.2-0.6s-0.3-0.2-0.5-0.2h-0.6v2.4h0.6c0.2,0,0.4-0.1,0.5-0.2C58.7,12.3,58.8,12.1,58.8,11.9z"/>
			<path d="M60.9,13.7V6.3h1v7.4H60.9z"/>
			<path d="M65.8,13.7l-1.6-4.5v4.5h-1V6.3h1l1.6,4.5V6.3h1v7.4H65.8z"/>
			<path d="M70.6,13.7V7.3h-1.2v-1h3.5v1h-1.3v6.4H70.6z"/>
			<path d="M73.7,13.7V6.3h1v3.1H76V6.3h1v7.4h-1v-3.3h-1.3v3.3H73.7z"/>
			<path d="M77.7,13.7l1.5-7.4h1l1.6,7.4h-1.1l-0.3-1.6h-1.4l-0.3,1.6H77.7z M79.3,11.1h1l-0.5-2.6L79.3,11.1z"/>
			<path d="M82.4,13.7V6.3h1v7.4H82.4z"/>
			<path d="M87.7,13.7h-3.1V6.3h1v6.3h2.1V13.7z"/>
			<path d="M88,13.7l1.5-7.4h1l1.6,7.4H91l-0.3-1.6h-1.4l-0.3,1.6H88z M89.5,11.1h1L90,8.5L89.5,11.1z"/>
			<path d="M95.4,13.7l-1.6-4.5v4.5h-1V6.3h1l1.6,4.5V6.3h1v7.4H95.4z"/>
			<path d="M99.2,6.3c0.5,0,0.9,0.2,1.2,0.5c0.3,0.3,0.5,0.7,0.5,1.2v3.8c0,0.5-0.2,1-0.5,1.3c-0.3,0.3-0.8,0.5-1.3,0.5h-1.6V6.3
				H99.2z M99.8,11.9V8.1c0-0.2-0.1-0.4-0.2-0.5c-0.1-0.1-0.3-0.2-0.5-0.2h-0.5v5.4h0.5C99.6,12.7,99.8,12.4,99.8,11.9z"/>
		</g>
	</g>
</g>
</svg>
