<svg xmlns="http://www.w3.org/2000/svg" viewBox="0 0 35 35"><defs><style>.cls-1{fill:#fff;}</style></defs><title>snsfacebook</title><g id="snsfacebook" data-name="snsfacebook"><g id="snsfacebook" data-name="snsfacebook"><circle class="cls-1" cx="17.5" cy="17.5" r="17.5"/><path d="M20.39,7.61h.27a16.7,16.7,0,0,1,2,.21l-.06,2.94,0,0-.91,0a4.4,4.4,0,0,0-1.55.12,1.11,1.11,0,0,0-.66.5,1.44,1.44,0,0,0-.17.52,5.18,5.18,0,0,0,0,.74l0,1.83,3.23.07h0l-.37,3.18-2.95-.06L19,27.46l0,0L15,27.4l0,0,.21-9.79-2.67-.05,0,0,.07-3.17h0l2.67.05,0-1.82a7.51,7.51,0,0,1,.29-2.28,3.9,3.9,0,0,1,.79-1.39A3.06,3.06,0,0,1,17,8.38,6,6,0,0,1,20.39,7.61Z"/></g></g></svg>