<svg xmlns="http://www.w3.org/2000/svg" viewBox="0 0 35 35"><defs><style>.cls-1{fill:#fff;}</style></defs><title>snsinstagram</title><g id="snsinstagram" data-name="snsinstagram"><g id="snsinstagram" data-name="snsinstagram"><circle class="cls-1" cx="17.5" cy="17.5" r="17.5"/><path d="M23.77,12.35a1.12,1.12,0,1,0-1.12,1.12,1.12,1.12,0,0,0,1.12-1.12"/><path d="M25.26,21.1a5.14,5.14,0,0,1-.32,1.74,2.92,2.92,0,0,1-.7,1.07,2.77,2.77,0,0,1-1.07.7,5.06,5.06,0,0,1-1.73.32c-1,0-1.28.05-3.77.05s-2.79,0-3.77-.05a5.14,5.14,0,0,1-1.74-.32,2.84,2.84,0,0,1-1.07-.7,2.92,2.92,0,0,1-.7-1.07,5.14,5.14,0,0,1-.32-1.74c-.05-1-.06-1.28-.06-3.77s0-2.78.06-3.77a5.06,5.06,0,0,1,.32-1.73,2.77,2.77,0,0,1,.7-1.07,2.84,2.84,0,0,1,1.07-.7,5.33,5.33,0,0,1,1.74-.33c1,0,1.27-.05,3.77-.05s2.78,0,3.77.05a5.25,5.25,0,0,1,1.73.33,3.12,3.12,0,0,1,1.77,1.77,5.06,5.06,0,0,1,.32,1.73c0,1,.06,1.28.06,3.77s0,2.79-.06,3.77Zm1.68-7.61a6.72,6.72,0,0,0-.43-2.27,4.82,4.82,0,0,0-2.73-2.73,6.72,6.72,0,0,0-2.27-.43C20.52,8,20.2,8,17.67,8s-2.86,0-3.85.06a6.77,6.77,0,0,0-2.27.43,4.82,4.82,0,0,0-2.73,2.73,7,7,0,0,0-.43,2.27c-.05,1-.06,1.31-.06,3.84s0,2.86.06,3.85a7.09,7.09,0,0,0,.43,2.27,4.82,4.82,0,0,0,2.73,2.73,7,7,0,0,0,2.27.43c1,.05,1.31.06,3.85.06s2.85,0,3.84-.06a7,7,0,0,0,2.27-.43,4.82,4.82,0,0,0,2.73-2.73,6.83,6.83,0,0,0,.43-2.27c0-1,.06-1.31.06-3.85s0-2.85-.06-3.84Z"/><path d="M17.67,20.44a3.11,3.11,0,1,1,3.11-3.11A3.12,3.12,0,0,1,17.67,20.44Zm0-7.9a4.8,4.8,0,1,0,4.79,4.79A4.8,4.8,0,0,0,17.67,12.54Z"/></g></g></svg>