<svg xmlns="http://www.w3.org/2000/svg" viewBox="0 0 35 35"><defs><style>.cls-1{fill:#fff;}</style></defs><title>snstwitter</title><g id="snstwitter" data-name="snstwitter"><g id="snstwitter" data-name="snstwitter"><circle class="cls-1" cx="17.5" cy="17.5" r="17.5"/><path d="M21.42,9h.22a4.3,4.3,0,0,1,1.68.37,6,6,0,0,1,.73.43,4.92,4.92,0,0,1,.58.51l.06.05A7.52,7.52,0,0,0,26,9.94a11.18,11.18,0,0,0,1.41-.67,4.2,4.2,0,0,1-.85,1.51c-.27.27-.43.44-.5.49a4,4,0,0,1-.54.37h0c.44-.06.82-.13,1.13-.2s.62-.19,1-.32L28,11a8.8,8.8,0,0,1-.91,1.13,7.74,7.74,0,0,1-.88.81,3,3,0,0,1-.37.28h0v.66a12.59,12.59,0,0,1-1,4.77,13.08,13.08,0,0,1-1,1.9,12.74,12.74,0,0,1-.8,1.14c-.22.27-.54.63-1,1.07l-.57.52a11.72,11.72,0,0,1-1.39,1,10.82,10.82,0,0,1-1.24.67,15.25,15.25,0,0,1-1.49.58,12.88,12.88,0,0,1-3.61.53H13.6a12.15,12.15,0,0,1-6-1.56L7,24.12c.35,0,.65,0,.91,0H8a8.62,8.62,0,0,0,4.5-1.26,9,9,0,0,0,.84-.58h0a4.3,4.3,0,0,1-1.77-.42,5.3,5.3,0,0,1-.92-.59,4.74,4.74,0,0,1-.61-.64A4.89,4.89,0,0,1,9.62,20a4.62,4.62,0,0,1-.29-.71h0a4.2,4.2,0,0,0,.7.07h.06a4.93,4.93,0,0,0,1.17-.14,6.34,6.34,0,0,1-.65-.2,4.23,4.23,0,0,1-2.29-2A4.36,4.36,0,0,1,7.81,15a5.22,5.22,0,0,0,.8.33,3.86,3.86,0,0,0,1.15.21A6.35,6.35,0,0,1,9.1,15a4.56,4.56,0,0,1-.67-.88,4.38,4.38,0,0,1-.58-2.17,4.31,4.31,0,0,1,.57-2.16h0c.22.26.48.55.79.86a12.63,12.63,0,0,0,1.21,1.07,11.19,11.19,0,0,0,1,.72,11.69,11.69,0,0,0,2.19,1.08,11.71,11.71,0,0,0,1.83.54,12.22,12.22,0,0,0,1.4.19l.46,0a4.69,4.69,0,0,1-.11-.94v-.14a4.34,4.34,0,0,1,.3-1.49,4.4,4.4,0,0,1,2.34-2.38A4.12,4.12,0,0,1,21.42,9Z"/></g></g></svg>