<svg xmlns="http://www.w3.org/2000/svg" viewBox="0 0 35 35"><defs><style>.cls-1{fill:#fff;}.cls-2{fill:#646464;}</style></defs><title>snstiktok</title><g id="snstiktok" data-name="snstiktok"><g id="snstiktok" data-name="snstiktok"><circle class="cls-1" cx="17.5" cy="17.5" r="17.5"/><path d="M14.11,23.46l.08.23Zm-3.86-1.67a3.54,3.54,0,0,1,4.58-3.12V15.39a7.14,7.14,0,0,1,1.22.07v4.23a3.62,3.62,0,0,0-3,.43,3.57,3.57,0,0,0-1.57,2.69,3.91,3.91,0,0,0,.68,2.35l-.43-.26A3.62,3.62,0,0,1,10.25,21.79ZM22.93,9.31a5.81,5.81,0,0,1-1.39-2.86H22.7a5.4,5.4,0,0,0,1.45,3.88l0,0A6.46,6.46,0,0,1,22.93,9.31Z"/><path d="M28.5,12.29v4.14a14.45,14.45,0,0,1-2.57-.35,9.74,9.74,0,0,1-2.5-1l-.73-.48v8.56a8.66,8.66,0,0,1-.51,2.66,7.69,7.69,0,0,1-4,4.26,7.68,7.68,0,0,1-3.18.7,7.85,7.85,0,0,1-4.28-1.29,8,8,0,0,1-1.22-1h0a7.83,7.83,0,0,0,4.28,1.29A7.71,7.71,0,0,0,17,29a8,8,0,0,0,2.58-1.93A8.09,8.09,0,0,0,21,24.78a8.66,8.66,0,0,0,.51-2.66V13.56l.73.48a9.74,9.74,0,0,0,2.5,1,14.35,14.35,0,0,0,2.57.35V12.17a3.81,3.81,0,0,0,1.21.12Z"/><path class="cls-1" d="M27.29,12.17v3.24a14.35,14.35,0,0,1-2.57-.35,9.74,9.74,0,0,1-2.5-1l-.73-.48v8.56A8.66,8.66,0,0,1,21,24.78a8.25,8.25,0,0,1-1.41,2.33A8,8,0,0,1,17,29a7.71,7.71,0,0,1-3.18.7,7.85,7.85,0,0,1-4.28-1.29h0a6.57,6.57,0,0,1-.61-.68,8,8,0,0,1-1.14-2.08h0a8.48,8.48,0,0,1-.46-2.77,7.63,7.63,0,0,1,.93-3.5,8.31,8.31,0,0,1,1.8-2.2,7.48,7.48,0,0,1,2.14-1.27,7.08,7.08,0,0,1,1.51-.44,7.33,7.33,0,0,1,1.14-.11v3.28a3.52,3.52,0,0,0-3.11,6.23l.43.26a3.56,3.56,0,0,0,.79.76,3.44,3.44,0,0,0,3.54.34,3.38,3.38,0,0,0,1.84-2,4.9,4.9,0,0,0,.18-1.66V6.46h3a5.82,5.82,0,0,0,1.39,2.85,6.9,6.9,0,0,0,1.24,1,6,6,0,0,0,3.12,1.81Z"/><path class="cls-2" d="M12.18,15.94A7.48,7.48,0,0,0,10,17.21a8.31,8.31,0,0,0-1.8,2.2,7.74,7.74,0,0,0-.92,3.51,8.25,8.25,0,0,0,.45,2.76h0a8.16,8.16,0,0,0,1.14,2.07,7.92,7.92,0,0,0,.61.69,8.65,8.65,0,0,1-1.82-1.7,8.33,8.33,0,0,1-1.14-2.07h0A8.22,8.22,0,0,1,6.1,21.9,7.49,7.49,0,0,1,7,18.4a8.36,8.36,0,0,1,1.8-2.21A7.69,7.69,0,0,1,11,14.93a7.08,7.08,0,0,1,1.51-.44,7.41,7.41,0,0,1,2.35,0v.94a6.29,6.29,0,0,0-1.14.11,7.08,7.08,0,0,0-1.51.44Z"/><path class="cls-2" d="M21.54,6.46h-3V22.59a4.67,4.67,0,0,1-.19,1.66,3.34,3.34,0,0,1-1.83,2,3.42,3.42,0,0,1-3.54-.34,3.13,3.13,0,0,1-.78-.76,3.32,3.32,0,0,0,3.11.08,3.34,3.34,0,0,0,1.83-2,4.88,4.88,0,0,0,.19-1.66V5.44h4.19a4.35,4.35,0,0,0,.06,1Zm5.75,4.81v.9a6,6,0,0,1-3.12-1.81,4.53,4.53,0,0,0,.48.27A5.56,5.56,0,0,0,27.29,11.27Z"/></g></g></svg>