<svg xmlns="http://www.w3.org/2000/svg" viewBox="0 0 35 35"><defs><style>.cls-1{fill:#fff;}</style></defs><title>snsvlive</title><g id="snsvlive" data-name="snsvlive"><g id="snsvlive" data-name="snsvlive"><circle class="cls-1" cx="17.5" cy="17.5" r="17.5"/><path d="M24.81,21.51a2,2,0,0,0,.59-.86l1.15-3.39a2,2,0,0,0-1.26-2.57,2,2,0,0,0-1.34,0,2,2,0,0,0,0-.34A2.46,2.46,0,0,0,22.32,12,2.43,2.43,0,0,0,21,12l.54-1.58a3,3,0,0,0,.15-.94A2.92,2.92,0,0,0,16,8.5l-1,3-.9-2.91a2.92,2.92,0,1,0-5.58,1.74l1.62,5.15H9.92a.69.69,0,0,0-.68.69v4.48a7.81,7.81,0,0,0,15.57.87Zm0-5.52a.66.66,0,0,1,.41.83l-1.16,3.39a.64.64,0,0,1-.82.41.66.66,0,0,1-.41-.83L24,16.4a.63.63,0,0,1,.82-.41Zm-3-2.66a1.09,1.09,0,0,1,.68,1.4l-1.73,5.08a1.09,1.09,0,0,1-1.38.69,1.13,1.13,0,0,1-.71-.75l.06,0A2.43,2.43,0,0,0,19.53,18a2.75,2.75,0,0,0-.13-.76c1.14-3.08,1-3.49,1.63-3.81a1.07,1.07,0,0,1,.84-.05ZM9.79,9.91a1.55,1.55,0,1,1,3-.93l1.53,4.94a.7.7,0,0,0,1.31,0l1.69-5a1.54,1.54,0,1,1,2.92,1c-.08.24-1.34,4-1.27,3.73l-.71,2.1a2.35,2.35,0,0,0-1.15-.31H11.52Zm7.27,17.21a6.47,6.47,0,0,1-6.45-6.48V16.85h6.45a1.1,1.1,0,0,1,.76,1.89,1.07,1.07,0,0,1-.76.32H13.94a.68.68,0,0,0-.69.68.69.69,0,0,0,.69.69h.21c2.08,0,1.74,2.36,1.77,2.45a.69.69,0,0,0,1.38,0,3.81,3.81,0,0,0-.56-2.45,4.29,4.29,0,0,0,.76,0A2.56,2.56,0,0,0,19,21.8,2.43,2.43,0,0,0,21.72,21a2,2,0,0,0,1.11.94,1.84,1.84,0,0,0,.52.1,6.48,6.48,0,0,1-6.29,5.1Z"/></g></g></svg>