<svg xmlns="http://www.w3.org/2000/svg" viewBox="0 0 35 35"><defs><style>.cls-1{fill:#fff;}</style></defs><title>snsweibo</title><g id="snsweibo" data-name="snsweibo"><g id="snsweibo" data-name="snsweibo"><circle class="cls-1" cx="17.5" cy="17.5" r="17.5"/><path d="M28.06,14.07c.09,1.18-.11,2.59-.89,2.66-1.27.11-.6-1.29-.59-2.13a4.12,4.12,0,0,0-4.08-4.14c-.58,0-1.92.39-1.71-.83.09-.54.54-.53,1-.59a5.38,5.38,0,0,1,6.27,5Z"/><path d="M22.44,16.91c1.48.8,3.25,1.21,3,3.6a4.58,4.58,0,0,1-.77,1.84c-2.5,3.49-10,5-14.73,2.3-1.58-.89-3.21-2.19-3-4.79.22-2.23,1.72-4,3.2-5.44a10.31,10.31,0,0,1,4.91-3c2.19-.56,2.84,1.27,2.25,3.07,1.26-.08,3.95-1.5,5.14-.12.53.61.32,1.7,0,2.55Zm-1.6,5.67a3.52,3.52,0,0,0,.95-2.3c0-2.94-3.71-4-6.62-3.79a8.18,8.18,0,0,0-3.79,1.13,4.35,4.35,0,0,0-2.25,2.72c-.59,2.95,2.61,4.33,5,4.49C16.82,25,19.55,24.05,20.84,22.58Z"/><path d="M25.16,14.07c.13.9-.13,1.68-.65,1.71-.86.06-.54-.59-.59-1.36a1.62,1.62,0,0,0-.77-1.18c-.67-.32-1.71.23-1.71-.71,0-.7.6-.63.94-.65A2.54,2.54,0,0,1,25.16,14.07Z"/><path d="M18.24,20c1.26,3.81-5.3,5.58-6.5,2.31-.81-2.19,1.12-3.93,3.13-4.14A3,3,0,0,1,18.24,20Zm-3,.65a.44.44,0,0,0,.82-.23C16,20,15.22,20,15.23,20.63Zm-1.07,2c1.1-.26,1.25-2.34-.41-1.95C12.35,21,12.62,23,14.16,22.64Z"/></g></g></svg>