<svg xmlns="http://www.w3.org/2000/svg" viewBox="0 0 35 35"><defs><style>.cls-1{fill:#fff;}</style></defs><title>snsyoutube</title><g id="snsyoutube" data-name="snsyoutube"><g id="snsyoutube" data-name="snsyoutube"><circle class="cls-1" cx="17.5" cy="17.5" r="17.5"/><path d="M17.52,11.1a38.69,38.69,0,0,1,7.24.42,2.35,2.35,0,0,1,1.34,1.16,7.67,7.67,0,0,1,.46,2.44c0,.79.07,1.58.08,2.36a18.52,18.52,0,0,1-.45,4.66A2.41,2.41,0,0,1,25,23.38a6.59,6.59,0,0,1-2.37.38c-1.62.09-3.35.14-5.21.14a37.59,37.59,0,0,1-7.29-.43,2.38,2.38,0,0,1-1.36-1.33,17.47,17.47,0,0,1-.45-4.66,18.48,18.48,0,0,1,.43-4.59,2.3,2.3,0,0,1,.47-.73,1.77,1.77,0,0,1,.51-.44,2.24,2.24,0,0,1,1-.32A53.35,53.35,0,0,1,17.52,11.1Zm-1.85,3.67v5.46h0l4.73-2.74Z"/></g></g></svg>