<svg id="Layer_1" data-name="Layer 1" xmlns="http://www.w3.org/2000/svg" viewBox="0 0 115.12 20.24"><defs><style>.cls-1{fill:#b3b3b3;}.cls-2{fill:#fff;}.cls-3{isolation:isolate;}</style></defs><title>song-hyeongjun-th</title><g id="Layer_1-2" data-name="Layer 1-2"><rect class="cls-1" x="13.81" y="2.94" width="101.31" height="14.37" rx="3.59"/><circle cx="10.12" cy="10.12" r="10.12"/><path class="cls-2" d="M14.78,9.5l-.91-.91V6.37a.62.62,0,0,0-.62-.62h-.63a.62.62,0,0,0-.62.62v.35L10.75,5.47a.88.88,0,0,0-.63-.35.86.86,0,0,0-.62.35l-4,4a.86.86,0,0,0-.35.62.62.62,0,0,0,.61.63H6.4V14.5a.64.64,0,0,0,.63.62H8.87V12a.63.63,0,0,1,.63-.63h1.25a.64.64,0,0,1,.62.63v3.12h1.88a.62.62,0,0,0,.62-.62V10.75h.63a.62.62,0,0,0,.62-.62h0A.85.85,0,0,0,14.78,9.5Z"/><g class="cls-3"><path d="M26.69,13.7V6.34h1V9.49h1.32V6.34h1V13.7h-1V10.41H27.74V13.7Z"/><path d="M32.05,13.7V10.53L30.63,6.34h1.1l.85,2.92.87-2.92h1.1l-1.46,4.19V13.7Z"/><path d="M38.21,12.66v1H35.07V6.34h3.14v1H36.12V9.49H38v1H36.12v2.18Z"/><path d="M39.42,7.05a1.82,1.82,0,0,1,.64-.56,1.61,1.61,0,0,1,.8-.2,1.76,1.76,0,0,1,.76.16,1.69,1.69,0,0,1,.6.45,1.63,1.63,0,0,1,.32.59,2.17,2.17,0,0,1,.09.65v3.74a2.37,2.37,0,0,1-.06.57,2,2,0,0,1-.26.56,1.75,1.75,0,0,1-2.37.48,1.44,1.44,0,0,1-.6-.6,1.72,1.72,0,0,1-.21-.54,3.18,3.18,0,0,1,0-.47V8.14a2.08,2.08,0,0,1,.07-.59A1.56,1.56,0,0,1,39.42,7.05Zm2,.58a.66.66,0,0,0-.57-.3.75.75,0,0,0-.37.11.63.63,0,0,0-.34.49,1,1,0,0,0,0,.22v3.74a2.32,2.32,0,0,0,0,.24.85.85,0,0,0,.18.36.6.6,0,0,0,.54.22.74.74,0,0,0,.36-.09.61.61,0,0,0,.23-.22.55.55,0,0,0,.09-.23,1.09,1.09,0,0,0,0-.28V8.15a2,2,0,0,0,0-.31A.46.46,0,0,0,41.45,7.63Z"/><path d="M46.38,13.7,44.74,9.22V13.7h-1V6.34h1l1.63,4.46V6.34h1V13.7Z"/><path d="M51.69,12.92a1.7,1.7,0,0,1-.63.62,1.87,1.87,0,0,1-.87.22,1.8,1.8,0,0,1-.81-.2,1.7,1.7,0,0,1-.59-.49,1.58,1.58,0,0,1-.29-.58,2.76,2.76,0,0,1-.07-.67V8.15a2.38,2.38,0,0,1,.06-.55,3.14,3.14,0,0,1,.4-.78,1.45,1.45,0,0,1,1.33-.53,1.85,1.85,0,0,1,.83.2,1.62,1.62,0,0,1,.58.51,1.7,1.7,0,0,1,.26.55,2.62,2.62,0,0,1,.06.57v.3H50.9v-.3a2.18,2.18,0,0,0,0-.28.88.88,0,0,0-.17-.31.59.59,0,0,0-.51-.2.61.61,0,0,0-.56.23,1.53,1.53,0,0,0-.16.33,2,2,0,0,0,0,.26v3.68a2.16,2.16,0,0,0,0,.31,1,1,0,0,0,.16.34.61.61,0,0,0,.55.23c.29,0,.47-.08.55-.23a1.55,1.55,0,0,0,.13-.34,1.33,1.33,0,0,0,0-.31V10.54h-.83V9.63H52v2.2a2.62,2.62,0,0,1-.06.66A1.27,1.27,0,0,1,51.69,12.92Z"/><path d="M55.24,13a1.88,1.88,0,0,1-.63.59,1.7,1.7,0,0,1-.81.22,1.75,1.75,0,0,1-.78-.18,2.13,2.13,0,0,1-.65-.51l.81-.64a.82.82,0,0,0,.59.26q.45,0,.57-.24a1.41,1.41,0,0,0,.13-.34c0-.07,0-.15,0-.24V6.34h1v5.43a3,3,0,0,1-.06.73A1.84,1.84,0,0,1,55.24,13Z"/><path d="M59.76,12.92a1.9,1.9,0,0,1-.62.61,1.62,1.62,0,0,1-.83.23,1.74,1.74,0,0,1-.88-.24,1.53,1.53,0,0,1-.58-.54,1.93,1.93,0,0,1-.21-.53,2.46,2.46,0,0,1,0-.49V6.34h1V12a.9.9,0,0,0,0,.25.79.79,0,0,0,.17.3.55.55,0,0,0,.49.2.53.53,0,0,0,.47-.23A.87.87,0,0,0,59,12V6.34h1V12a2,2,0,0,1-.06.5A1.38,1.38,0,0,1,59.76,12.92Z"/><path d="M63.82,13.7,62.18,9.22V13.7h-1V6.34h1l1.63,4.46V6.34h1V13.7Z"/><path d="M68.71,13.7V7.32H67.48v-1H71v1H69.76V13.7Z"/><path d="M71.75,13.7V6.34h1V9.49h1.32V6.34h1V13.7h-1V10.41H72.79V13.7Z"/><path d="M75.74,13.7l1.53-7.36h1l1.64,7.36H78.8l-.29-1.58H77.15l-.29,1.58Zm1.58-2.56h1l-.49-2.62Z"/><path d="M80.47,13.7V6.34h1V13.7Z"/><path d="M85.79,13.7H82.67V6.34h1v6.32h2.08Z"/><path d="M86,13.7l1.54-7.36h1l1.64,7.36H89.09l-.3-1.58H87.44l-.3,1.58Zm1.59-2.56h1l-.5-2.62Z"/><path d="M93.44,13.7,91.8,9.22V13.7h-1V6.34h1l1.63,4.46V6.34h1V13.7Z"/><path d="M97.22,6.34a1.7,1.7,0,0,1,1.22.5A1.65,1.65,0,0,1,99,8.05v3.83a1.8,1.8,0,0,1-.49,1.31,1.69,1.69,0,0,1-1.27.51H95.56V6.34Zm.68,5.54V8.05a.64.64,0,0,0-.22-.51.72.72,0,0,0-.53-.21h-.54v5.39h.51Q97.9,12.72,97.9,11.88Z"/></g></g></svg>