<?xml version="1.0" encoding="utf-8"?>
<!-- Generator: Adobe Illustrator 23.0.3, SVG Export Plug-In . SVG Version: 6.00 Build 0)  -->
<svg version="1.1" id="Layer_1" xmlns="http://www.w3.org/2000/svg" xmlns:xlink="http://www.w3.org/1999/xlink" x="0px" y="0px"
	 viewBox="0 0 115.1 20.2" style="enable-background:new 0 0 115.1 20.2;" xml:space="preserve">
<style type="text/css">
	.st0{fill:#B3B3B3;}
	.st1{fill:#FFFFFF;}
	.st2{enable-background:new    ;}
</style>
<title>vita-minhee-th</title>
<g>
	<g id="Layer_1-2">
		<path class="st0" d="M17.4,2.9h94.1c2,0,3.6,1.6,3.6,3.6v7.2c0,2-1.6,3.6-3.6,3.6H17.4c-2,0-3.6-1.6-3.6-3.6V6.5
			C13.8,4.5,15.4,2.9,17.4,2.9z"/>
		<circle cx="10.1" cy="10.1" r="10.1"/>
		<path class="st1" d="M14.8,9.5l-0.9-0.9V6.4c0-0.3-0.3-0.6-0.6-0.6h-0.6C12.3,5.8,12,6,12,6.4v0.3l-1.3-1.3
			c-0.2-0.2-0.4-0.3-0.6-0.3c-0.2,0-0.5,0.2-0.6,0.3l-4,4c-0.2,0.1-0.3,0.4-0.3,0.6c0,0.3,0.3,0.6,0.6,0.6c0,0,0,0,0,0h0.6v3.8
			c0,0.3,0.3,0.6,0.6,0.6h1.8V12c0-0.3,0.3-0.6,0.6-0.6l0,0h1.3c0.3,0,0.6,0.3,0.6,0.6v3.1h1.9c0.3,0,0.6-0.3,0.6-0.6v-3.8h0.6
			c0.3,0,0.6-0.3,0.6-0.6c0,0,0,0,0,0C15.1,9.9,15,9.6,14.8,9.5z"/>
		<g class="st2">
			<path d="M27.7,13.7l-1.5-7.4h1.1l0.8,5.1L29,6.3h1.1l-1.5,7.4H27.7z"/>
			<path d="M30.8,13.7V6.3h1v7.4H30.8z"/>
			<path d="M33.8,13.7V7.3h-1.2v-1h3.5v1h-1.3v6.4H33.8z"/>
			<path d="M36.3,13.7l1.5-7.4h1l1.6,7.4h-1.1L39,12.1h-1.4l-0.3,1.6H36.3z M37.8,11.1h1l-0.5-2.6L37.8,11.1z"/>
			<path d="M44.6,13.7V9.3l-1,3.1h-0.5l-1-3.1v4.4h-1V6.3h1l1.4,3.9l1.4-3.9h1v7.4H44.6z"/>
			<path d="M46.8,13.7V6.3h1v7.4H46.8z"/>
			<path d="M51.7,13.7l-1.6-4.5v4.5h-1V6.3h1l1.6,4.5V6.3h1v7.4H51.7z"/>
			<path d="M53.8,13.7V6.3h1v3.1h1.3V6.3h1v7.4h-1v-3.3h-1.3v3.3H53.8z"/>
			<path d="M61.5,12.7v1h-3.1V6.3h3.1v1h-2.1v2.2h1.8v1h-1.8v2.2H61.5z"/>
			<path d="M65.6,12.7v1h-3.1V6.3h3.1v1h-2.1v2.2h1.8v1h-1.8v2.2H65.6z"/>
			<path d="M69.4,13.7V7.3h-1.2v-1h3.5v1h-1.3v6.4H69.4z"/>
			<path d="M72.4,13.7V6.3h1v3.1h1.3V6.3h1v7.4h-1v-3.3h-1.3v3.3H72.4z"/>
			<path d="M76.4,13.7l1.5-7.4h1l1.6,7.4h-1.1l-0.3-1.6h-1.4l-0.3,1.6H76.4z M78,11.1h1l-0.5-2.6L78,11.1z"/>
			<path d="M81.1,13.7V6.3h1v7.4H81.1z"/>
			<path d="M86.4,13.7h-3.1V6.3h1v6.3h2.1V13.7z"/>
			<path d="M86.7,13.7l1.5-7.4h1l1.6,7.4h-1.1l-0.3-1.6h-1.4l-0.3,1.6H86.7z M88.3,11.1h1l-0.5-2.6L88.3,11.1z"/>
			<path d="M94.1,13.7l-1.6-4.5v4.5h-1V6.3h1l1.6,4.5V6.3h1v7.4H94.1z"/>
			<path d="M97.9,6.3c0.5,0,0.9,0.2,1.2,0.5c0.3,0.3,0.5,0.7,0.5,1.2v3.8c0,0.5-0.2,1-0.5,1.3c-0.3,0.3-0.8,0.5-1.3,0.5h-1.6V6.3
				H97.9z M98.6,11.9V8.1c0-0.2-0.1-0.4-0.2-0.5c-0.1-0.1-0.3-0.2-0.5-0.2h-0.5v5.4h0.5C98.3,12.7,98.6,12.4,98.6,11.9z"/>
		</g>
	</g>
</g>
</svg>
