<svg xmlns="http://www.w3.org/2000/svg" viewBox="0 0 476.16 90.58"><defs><style>.cls-1{fill:#fff;}</style></defs><title>logo_2</title><g id="Layer_2" data-name="Layer 2"><g id="Layer_1-2" data-name="Layer 1"><g id="Title-Logo"><path class="cls-1" d="M80.85,74.85c-2,2.64-13,15.63-31.1,15.63H49a39.8,39.8,0,0,1-26.9-11.38c-.41-.42-1-1-1.65-1.75a38,38,0,0,1-9.55-24.65A36.59,36.59,0,0,1,16,34.28l.22-.37,0,0a15.14,15.14,0,0,0,2-7.59,15.47,15.47,0,0,0-3.57-9.54s0,0,0,0L.36.84A.54.54,0,0,1,.05.13.5.5,0,0,1,.64.06L61.76,59.13c1.88,1.83,1.54,4.64.07,5.69a3.79,3.79,0,0,1-4.95-1.13L35.61,40A3.51,3.51,0,0,0,33,39.75a3.35,3.35,0,0,0-1.43.87,3.74,3.74,0,0,0-.71,1h0a20.17,20.17,0,0,0-3.39,11,21.19,21.19,0,0,0,5.38,13.69c.4.45.74.79,1,1.07A23.32,23.32,0,0,0,49.34,74c10.87.19,17.71-8.24,18.46-9.21a8.24,8.24,0,1,1,13,10.08Z"/><path class="cls-1" d="M76.13,36.17a8.21,8.21,0,0,1-11.59.51,22.06,22.06,0,0,0-11.13-5.53A22.33,22.33,0,0,0,41,32.66l-12.23-12a8.19,8.19,0,0,1,.68-.47A39.56,39.56,0,0,1,56.22,15a38.57,38.57,0,0,1,19.4,9.6A8.19,8.19,0,0,1,76.13,36.17Z"/><ellipse class="cls-1" cx="83.89" cy="85.3" rx="4.65" ry="5.74" transform="translate(-35.56 78.46) rotate(-42.2)"/><rect class="cls-1" x="123.73" y="22.29" width="3.83" height="61.32"/></g><path class="cls-1" d="M172.14,44.69v-.41a2.67,2.67,0,0,0-.11-.71,1.5,1.5,0,0,0-.46-.72,2.86,2.86,0,0,0-1-.57,4.85,4.85,0,0,0-1.69-.24,4.46,4.46,0,0,0-1.6.24,2.39,2.39,0,0,0-.93.61,1.67,1.67,0,0,0-.42.75,2.76,2.76,0,0,0-.1.72v17.1a2.76,2.76,0,0,0,.1.72,1.56,1.56,0,0,0,.42.73,2.48,2.48,0,0,0,.93.59,4.46,4.46,0,0,0,1.6.24,4.85,4.85,0,0,0,1.69-.24,2.86,2.86,0,0,0,1-.57,1.53,1.53,0,0,0,.46-.71,2.72,2.72,0,0,0,.11-.68v-.41h3.12v.92a7,7,0,0,1-.14,1.18,3.27,3.27,0,0,1-.78,1.46A4.87,4.87,0,0,1,172.47,66a11.49,11.49,0,0,1-6.9,0,5.12,5.12,0,0,1-1.89-1.27,3.21,3.21,0,0,1-.79-1.48,6.4,6.4,0,0,1-.15-1.16V43.73a6.32,6.32,0,0,1,.15-1.15,3.2,3.2,0,0,1,.79-1.49,5.25,5.25,0,0,1,1.89-1.27,11.49,11.49,0,0,1,6.9,0,5,5,0,0,1,1.87,1.27,3.26,3.26,0,0,1,.78,1.49,7.11,7.11,0,0,1,.14,1.15v1Z"/><path class="cls-1" d="M192.19,66.24l-4-11.38-.73.27a5.9,5.9,0,0,1-.59.2l-.55.19a5.29,5.29,0,0,0-.85.36,1.85,1.85,0,0,0-.58.54,1.67,1.67,0,0,0-.3.86v9H181.5V43.77a6.4,6.4,0,0,1,.15-1.16,3.21,3.21,0,0,1,.77-1.48,5,5,0,0,1,1.87-1.27,11.49,11.49,0,0,1,6.9,0,4.91,4.91,0,0,1,1.88,1.27,3.31,3.31,0,0,1,.77,1.48,6.4,6.4,0,0,1,.15,1.16V49.9a4.27,4.27,0,0,1-.65,2.24,4.34,4.34,0,0,1-2.18,1.69l4.33,12.41Zm-6.74-13.51c.33-.13.68-.25,1.05-.37l1.1-.39c.36-.13.69-.25,1-.34l.44-.15.4-.15a2,2,0,0,0,1.2-.92,2.5,2.5,0,0,0,.27-1V44.32a2.8,2.8,0,0,0-.11-.72,1.61,1.61,0,0,0-.46-.71,2.86,2.86,0,0,0-1-.57,4.85,4.85,0,0,0-1.69-.24,4.46,4.46,0,0,0-1.6.24,2.5,2.5,0,0,0-.93.6,1.76,1.76,0,0,0-.42.76,2.64,2.64,0,0,0-.1.71V53Z"/><path class="cls-1" d="M213.85,66.24h-3.12V53.94l-.79.29-1.56.55-2.21.74a2.81,2.81,0,0,0-.84.36,3,3,0,0,0-.61.57,1.44,1.44,0,0,0-.27.9v8.89h-3.09V43.77a6.4,6.4,0,0,1,.15-1.16,3.21,3.21,0,0,1,.77-1.48,5,5,0,0,1,1.87-1.27,11.53,11.53,0,0,1,6.91,0,5,5,0,0,1,1.87,1.27,3.31,3.31,0,0,1,.77,1.48,6.4,6.4,0,0,1,.15,1.16Zm-8.3-13.61,1.56-.55,1.43-.49c.43-.15.67-.23.72-.26a1.88,1.88,0,0,0,1.21-.92,2.69,2.69,0,0,0,.26-1.06v-5a2.46,2.46,0,0,0-.12-.72,1.58,1.58,0,0,0-.45-.71,3,3,0,0,0-1-.57,4.81,4.81,0,0,0-1.69-.24,4.36,4.36,0,0,0-1.59.24,2.46,2.46,0,0,0-.94.6,1.76,1.76,0,0,0-.42.76,3.07,3.07,0,0,0-.09.71V53Z"/><path class="cls-1" d="M233.6,62.6v1.21a4.62,4.62,0,0,1-.08.9,2.46,2.46,0,0,1-.25.72A3.28,3.28,0,0,1,231.06,67a3.61,3.61,0,0,1-1.91-.07c-.61-.2-1.28-.42-2-.68l-2-.72c-.18,0-.41-.13-.72-.24a5.5,5.5,0,0,1-.53-.2,8.42,8.42,0,0,1-.92-.37,3,3,0,0,1-.9-.64,3.07,3.07,0,0,1-.68-1.1,5.15,5.15,0,0,1-.26-1.78V39.62h3.09V60.07a.48.48,0,0,1,0,.18,2.33,2.33,0,0,0,.29,1.23,2.54,2.54,0,0,0,.77.83,4,4,0,0,0,1,.51c.36.12.71.25,1,.37a15.33,15.33,0,0,0,1.73.48,1.64,1.64,0,0,0,.94,0,.72.72,0,0,0,.38-.53,5.49,5.49,0,0,0,.08-1v-3.2h0V39.62h3.09v23Z"/><path class="cls-1" d="M244.43,39.66v3.7h-3.09v-3.7Zm-3.09,7.41h3.09V66.24h-3.09Z"/><path class="cls-1" d="M263.44,42.23h-4.7v24h-3.08v-24H251V39.62h12.48Z"/><path class="cls-1" d="M282.16,57.94v4.15a6.94,6.94,0,0,1-.14,1.17,3.38,3.38,0,0,1-.77,1.47A5,5,0,0,1,279.37,66a11.49,11.49,0,0,1-6.9,0,5.07,5.07,0,0,1-1.87-1.27,3.24,3.24,0,0,1-.77-1.49,6.32,6.32,0,0,1-.15-1.15v-1h3.09v.44a3.22,3.22,0,0,0,.09.72,1.61,1.61,0,0,0,.42.73,2.57,2.57,0,0,0,.94.59,4.36,4.36,0,0,0,1.59.24,4.81,4.81,0,0,0,1.69-.24,2.86,2.86,0,0,0,1-.57,1.5,1.5,0,0,0,.46-.72,2.23,2.23,0,0,0,.11-.68v-4a2.73,2.73,0,0,0-.25-1,1.87,1.87,0,0,0-1.21-.94l-.56-.18-.58-.22-2.76-.92a.54.54,0,0,0-.22-.08,5.33,5.33,0,0,1-2.93-1.79,4.19,4.19,0,0,1-.85-2.5V39.62h3.09v9.84a2.51,2.51,0,0,0,.33,1,1.91,1.91,0,0,0,1.17.84,2.81,2.81,0,0,0,.37.15l.48.15c.41.17.91.35,1.48.55l1.6.55.44.13a2.09,2.09,0,0,1,.4.12V39.62h3.12V57.94Z"/><path class="cls-1" d="M313,49.68v.22a4.15,4.15,0,0,1-.87,2.5,5.43,5.43,0,0,1-3,1.79.54.54,0,0,0-.22.08l-1.2.4-1.19.41c-.44.14-.86.29-1.25.44a2.81,2.81,0,0,0-.84.36,3,3,0,0,0-.61.57,1.44,1.44,0,0,0-.27.9v8.89h-3.12V43.77a7.2,7.2,0,0,1,.14-1.16,3.17,3.17,0,0,1,.79-1.48,5.12,5.12,0,0,1,1.89-1.27,11.53,11.53,0,0,1,6.91,0,5,5,0,0,1,1.87,1.27,3.31,3.31,0,0,1,.77,1.48,6.4,6.4,0,0,1,.15,1.16v5.91Zm-8.58,3c.33-.13.68-.25,1.05-.37s.73-.25,1.1-.39l1-.34.44-.15.41-.15a1.88,1.88,0,0,0,1.21-.92,2.66,2.66,0,0,0,.25-1.06v-5a2.43,2.43,0,0,0-.11-.72,1.58,1.58,0,0,0-.45-.71,3,3,0,0,0-1-.57,4.81,4.81,0,0,0-1.69-.24,4.36,4.36,0,0,0-1.59.24,2.46,2.46,0,0,0-.94.6,1.76,1.76,0,0,0-.42.76,3.07,3.07,0,0,0-.09.71V53Z"/><path class="cls-1" d="M331.1,63.63v2.61h-6.72a4,4,0,0,1-1.83-.39,4,4,0,0,1-1.29-1,4.18,4.18,0,0,1-.77-1.34,4.38,4.38,0,0,1-.26-1.43V39.62h3.09V61.5a2.17,2.17,0,0,0,.57,1.51,2,2,0,0,0,1.52.62h5.69Z"/><path class="cls-1" d="M350.85,66.24h-3.12V53.94l-.79.29-1.56.55-2.2.74a2.76,2.76,0,0,0-.85.36,2.68,2.68,0,0,0-.6.57,1.38,1.38,0,0,0-.28.9v8.89h-3.08V43.77a6.4,6.4,0,0,1,.15-1.16,3.12,3.12,0,0,1,.77-1.48,4.87,4.87,0,0,1,1.87-1.27,11.49,11.49,0,0,1,6.9,0,4.87,4.87,0,0,1,1.87,1.27,3.12,3.12,0,0,1,.77,1.48,6.4,6.4,0,0,1,.15,1.16Zm-8.3-13.61,1.56-.55,1.44-.49c.42-.15.66-.23.71-.26a1.85,1.85,0,0,0,1.21-.92,2.69,2.69,0,0,0,.26-1.06v-5a2.8,2.8,0,0,0-.11-.72,1.61,1.61,0,0,0-.46-.71,3,3,0,0,0-1-.57,4.85,4.85,0,0,0-1.69-.24,4.46,4.46,0,0,0-1.6.24,2.5,2.5,0,0,0-.93.6,1.78,1.78,0,0,0-.43.76,3.07,3.07,0,0,0-.09.71V53Z"/><path class="cls-1" d="M370.6,66.24h-3.12V44.32a2.8,2.8,0,0,0-.11-.72,1.65,1.65,0,0,0-.44-.71,2.67,2.67,0,0,0-1-.57,5,5,0,0,0-1.71-.24,4.46,4.46,0,0,0-1.6.24,2.5,2.5,0,0,0-.93.6,1.9,1.9,0,0,0-.43.76,3.07,3.07,0,0,0-.09.71V66.24h-3.08V43.77a6.4,6.4,0,0,1,.15-1.16,3.12,3.12,0,0,1,.77-1.48,4.87,4.87,0,0,1,1.87-1.27,11.49,11.49,0,0,1,6.9,0,4.87,4.87,0,0,1,1.87,1.27,3.12,3.12,0,0,1,.77,1.48,6.4,6.4,0,0,1,.15,1.16V66.24Z"/><path class="cls-1" d="M389.21,66.24H382a4.06,4.06,0,0,1-1.84-.39,4.1,4.1,0,0,1-1.28-1,4,4,0,0,1-.77-1.34,4.38,4.38,0,0,1-.26-1.43V43.77a4.33,4.33,0,0,1,.26-1.43A4,4,0,0,1,378.9,41a3.83,3.83,0,0,1,1.28-1,4.06,4.06,0,0,1,1.84-.39h7.19v2.57h-6.16a1.94,1.94,0,0,0-1.53.64,2.27,2.27,0,0,0-.57,1.56v7.09h6.65v2.9H381V61.5a2.19,2.19,0,0,0,.57,1.52,1.94,1.94,0,0,0,1.53.65h6.16Z"/><path class="cls-1" d="M408.23,42.23h-4.7v24h-3.08v-24h-4.7V39.62h12.48Z"/><path class="cls-1" d="M427,62.05a7,7,0,0,1-.14,1.18,3.35,3.35,0,0,1-.77,1.46A4.91,4.91,0,0,1,424.16,66a11.49,11.49,0,0,1-6.9,0,4.87,4.87,0,0,1-1.87-1.27,3.26,3.26,0,0,1-.77-1.48,6.4,6.4,0,0,1-.15-1.16v-.92h3.09v.33a3.22,3.22,0,0,0,.09.72,1.56,1.56,0,0,0,.42.73,2.48,2.48,0,0,0,.93.59,4.46,4.46,0,0,0,1.6.24,4.85,4.85,0,0,0,1.69-.24,2.86,2.86,0,0,0,1-.57,1.53,1.53,0,0,0,.46-.71,2.33,2.33,0,0,0,.11-.68v-4a2.73,2.73,0,0,0-.25-1,1.92,1.92,0,0,0-1.22-.94l-.55-.18c-.22-.07-.41-.15-.58-.22l-2.76-.92a.53.53,0,0,0-.22-.07,5.39,5.39,0,0,1-2.93-1.8,4.17,4.17,0,0,1-.85-2.5V43.73a6.32,6.32,0,0,1,.15-1.15,3.24,3.24,0,0,1,.77-1.49,5,5,0,0,1,1.87-1.27,11.49,11.49,0,0,1,6.9,0A5,5,0,0,1,426,41.09a3.34,3.34,0,0,1,.77,1.49,7.11,7.11,0,0,1,.14,1.15v1h-3.12v-.41a2.32,2.32,0,0,0-.11-.71,1.5,1.5,0,0,0-.46-.72,2.86,2.86,0,0,0-1-.57A4.85,4.85,0,0,0,420.6,42a4.46,4.46,0,0,0-1.6.24,2.39,2.39,0,0,0-.93.61,1.67,1.67,0,0,0-.42.75,3.22,3.22,0,0,0-.09.72v5a2.59,2.59,0,0,0,.27,1.07,2,2,0,0,0,1.23.91,2.81,2.81,0,0,0,.37.15l.44.15,1.52.51c.58.2,1.11.39,1.6.59a6.24,6.24,0,0,1,1.25.44,3.49,3.49,0,0,1,1.15.64,5,5,0,0,1,.87,1A4,4,0,0,1,427,57v5Z"/><path class="cls-1" d="M439,36.14H437.6v7h-.9v-7h-1.38v-.76H439Z"/><path class="cls-1" d="M444.65,35.38v7.77h-.9V39.68H441.7v3.47h-.91V35.38h.91v3.46h2.05V35.38Z"/><path class="cls-1" d="M450.42,43.15h-.92V39.56l-.23.08-.45.16-.64.22a.77.77,0,0,0-.25.1,1,1,0,0,0-.18.17.45.45,0,0,0-.08.26h0v2.59h-.9V36.59a3.26,3.26,0,0,1,0-.34,1,1,0,0,1,.23-.43,1.3,1.3,0,0,1,.55-.37,2.45,2.45,0,0,1,1-.16,2.51,2.51,0,0,1,1,.16,1.36,1.36,0,0,1,.55.37.93.93,0,0,1,.22.43,2,2,0,0,1,.05.34Zm-2.43-4,.46-.17.42-.14.21-.08a.55.55,0,0,0,.35-.26.8.8,0,0,0,.07-.31V36.75a.76.76,0,0,0,0-.21.39.39,0,0,0-.13-.21,1,1,0,0,0-.29-.17,1.55,1.55,0,0,0-.49-.07,1.5,1.5,0,0,0-.47.07.91.91,0,0,0-.27.18.53.53,0,0,0-.12.22.82.82,0,0,0,0,.21v2.52Z"/><path class="cls-1" d="M453.57,35.39v1.08h-.9V35.39Zm-.9,2.16h.9v5.6h-.9Z"/><path class="cls-1" d="M458.86,42.39v.76h-2a1.13,1.13,0,0,1-.54-.12,1.06,1.06,0,0,1-.37-.29,1.09,1.09,0,0,1-.23-.39,1.22,1.22,0,0,1-.07-.41V35.38h.9v6.38a.58.58,0,0,0,.17.44.57.57,0,0,0,.44.19h1.66Z"/><path class="cls-1" d="M464.63,43.15h-.91V39.56l-.23.08-.46.16-.64.22a.77.77,0,0,0-.25.1,1.41,1.41,0,0,0-.18.17.45.45,0,0,0-.08.26h0v2.59H461V36.59a2,2,0,0,1,0-.34.93.93,0,0,1,.22-.43,1.36,1.36,0,0,1,.55-.37,3.24,3.24,0,0,1,2,0,1.3,1.3,0,0,1,.55.37,1,1,0,0,1,.23.43,3.26,3.26,0,0,1,0,.34Zm-2.42-4,.45-.17.42-.14.21-.08a.55.55,0,0,0,.35-.26.83.83,0,0,0,.08-.31V36.75a.76.76,0,0,0,0-.21.49.49,0,0,0-.14-.21,1,1,0,0,0-.28-.17,1.62,1.62,0,0,0-.5-.07,1.44,1.44,0,0,0-.46.07.85.85,0,0,0-.28.18.53.53,0,0,0-.12.22.82.82,0,0,0,0,.21v2.52Z"/><path class="cls-1" d="M470.4,43.15h-.92v-6.4a.76.76,0,0,0,0-.21.39.39,0,0,0-.13-.21.9.9,0,0,0-.28-.17,1.67,1.67,0,0,0-.5-.07,1.5,1.5,0,0,0-.47.07.91.91,0,0,0-.27.18.53.53,0,0,0-.12.22.82.82,0,0,0,0,.21v6.38h-.9V36.59a1.77,1.77,0,0,1,0-.34,1,1,0,0,1,.23-.43,1.3,1.3,0,0,1,.55-.37,2.45,2.45,0,0,1,1-.16,2.51,2.51,0,0,1,1,.16,1.36,1.36,0,0,1,.55.37.93.93,0,0,1,.22.43,2,2,0,0,1,0,.34v6.56Z"/><path class="cls-1" d="M476.16,41.66v.28a1.22,1.22,0,0,1-.07.41,1.09,1.09,0,0,1-.23.39,1.06,1.06,0,0,1-.37.29,1.13,1.13,0,0,1-.54.12h-2.43V35.38H475a1.13,1.13,0,0,1,.54.11,1.06,1.06,0,0,1,.37.29,1.29,1.29,0,0,1,.23.39,1.23,1.23,0,0,1,.07.42v5.07Zm-.9-4.79v-.1a.64.64,0,0,0-.17-.46.56.56,0,0,0-.44-.18h-1.22V42.4h1.22a.57.57,0,0,0,.44-.19.62.62,0,0,0,.17-.45V36.87Z"/></g></g></svg>